<?xml version="1.0" encoding="utf-8" standalone="no"?>
<!DOCTYPE svg PUBLIC "-//W3C//DTD SVG 1.1//EN"
  "http://www.w3.org/Graphics/SVG/1.1/DTD/svg11.dtd">
<svg xmlns:xlink="http://www.w3.org/1999/xlink" width="432.749375pt" height="409.845939pt" viewBox="0 0 432.749375 409.845939" xmlns="http://www.w3.org/2000/svg" version="1.1">
 <metadata>
  <rdf:RDF xmlns:dc="http://purl.org/dc/elements/1.1/" xmlns:cc="http://creativecommons.org/ns#" xmlns:rdf="http://www.w3.org/1999/02/22-rdf-syntax-ns#">
   <cc:Work>
    <dc:type rdf:resource="http://purl.org/dc/dcmitype/StillImage"/>
    <dc:date>2026-03-25T20:18:07.509608</dc:date>
    <dc:format>image/svg+xml</dc:format>
    <dc:creator>
     <cc:Agent>
      <dc:title>Matplotlib v3.10.8, https://matplotlib.org/</dc:title>
     </cc:Agent>
    </dc:creator>
   </cc:Work>
  </rdf:RDF>
 </metadata>
 <defs>
  <style type="text/css">*{stroke-linejoin: round; stroke-linecap: butt}</style>
 </defs>
 <g id="figure_1">
  <g id="patch_1">
   <path d="M -0 409.845939 
L 432.749375 409.845939 
L 432.749375 0 
L -0 0 
z
" style="fill: #ffffff"/>
  </g>
  <g id="axes_1">
   <g id="patch_2">
    <path d="M 165.852812 352.355383 
L 424.442813 352.355383 
L 424.442813 7.2 
L 165.852812 7.2 
z
" style="fill: #ffffff"/>
   </g>
   <g id="matplotlib.axis_1">
    <g id="xtick_1">
     <g id="line2d_1">
      <path d="M 170.001495 352.355383 
L 170.001495 7.2 
" clip-path="url(#pb40bb65fc3)" style="fill: none; stroke: #d9dee7; stroke-opacity: 0.85; stroke-width: 0.8; stroke-linecap: square"/>
     </g>
     <g id="line2d_2">
      <defs>
       <path id="mc5a4389c54" d="M 0 0 
L 0 3.5 
" style="stroke: #1f2a44; stroke-width: 0.8"/>
      </defs>
      <g>
       <use xlink:href="#mc5a4389c54" x="170.001495" y="352.355383" style="fill: #1f2a44; stroke: #1f2a44; stroke-width: 0.8"/>
      </g>
     </g>
     <g id="text_1">
      <!-- 0.00 -->
      <g style="fill: #1f2a44" transform="translate(159.981964 366.193977) scale(0.09 -0.09)">
       <defs>
        <path id="DejaVuSans-30" d="M 2034 4250 
Q 1547 4250 1301 3770 
Q 1056 3291 1056 2328 
Q 1056 1369 1301 889 
Q 1547 409 2034 409 
Q 2525 409 2770 889 
Q 3016 1369 3016 2328 
Q 3016 3291 2770 3770 
Q 2525 4250 2034 4250 
z
M 2034 4750 
Q 2819 4750 3233 4129 
Q 3647 3509 3647 2328 
Q 3647 1150 3233 529 
Q 2819 -91 2034 -91 
Q 1250 -91 836 529 
Q 422 1150 422 2328 
Q 422 3509 836 4129 
Q 1250 4750 2034 4750 
z
" transform="scale(0.015625)"/>
        <path id="DejaVuSans-2e" d="M 684 794 
L 1344 794 
L 1344 0 
L 684 0 
L 684 794 
z
" transform="scale(0.015625)"/>
       </defs>
       <use xlink:href="#DejaVuSans-30"/>
       <use xlink:href="#DejaVuSans-2e" transform="translate(63.623047 0)"/>
       <use xlink:href="#DejaVuSans-30" transform="translate(95.410156 0)"/>
       <use xlink:href="#DejaVuSans-30" transform="translate(159.033203 0)"/>
      </g>
     </g>
    </g>
    <g id="xtick_2">
     <g id="line2d_3">
      <path d="M 217.336964 352.355383 
L 217.336964 7.2 
" clip-path="url(#pb40bb65fc3)" style="fill: none; stroke: #d9dee7; stroke-opacity: 0.85; stroke-width: 0.8; stroke-linecap: square"/>
     </g>
     <g id="line2d_4">
      <g>
       <use xlink:href="#mc5a4389c54" x="217.336964" y="352.355383" style="fill: #1f2a44; stroke: #1f2a44; stroke-width: 0.8"/>
      </g>
     </g>
     <g id="text_2">
      <!-- 0.08 -->
      <g style="fill: #1f2a44" transform="translate(207.317432 366.193977) scale(0.09 -0.09)">
       <defs>
        <path id="DejaVuSans-38" d="M 2034 2216 
Q 1584 2216 1326 1975 
Q 1069 1734 1069 1313 
Q 1069 891 1326 650 
Q 1584 409 2034 409 
Q 2484 409 2743 651 
Q 3003 894 3003 1313 
Q 3003 1734 2745 1975 
Q 2488 2216 2034 2216 
z
M 1403 2484 
Q 997 2584 770 2862 
Q 544 3141 544 3541 
Q 544 4100 942 4425 
Q 1341 4750 2034 4750 
Q 2731 4750 3128 4425 
Q 3525 4100 3525 3541 
Q 3525 3141 3298 2862 
Q 3072 2584 2669 2484 
Q 3125 2378 3379 2068 
Q 3634 1759 3634 1313 
Q 3634 634 3220 271 
Q 2806 -91 2034 -91 
Q 1263 -91 848 271 
Q 434 634 434 1313 
Q 434 1759 690 2068 
Q 947 2378 1403 2484 
z
M 1172 3481 
Q 1172 3119 1398 2916 
Q 1625 2713 2034 2713 
Q 2441 2713 2670 2916 
Q 2900 3119 2900 3481 
Q 2900 3844 2670 4047 
Q 2441 4250 2034 4250 
Q 1625 4250 1398 4047 
Q 1172 3844 1172 3481 
z
" transform="scale(0.015625)"/>
       </defs>
       <use xlink:href="#DejaVuSans-30"/>
       <use xlink:href="#DejaVuSans-2e" transform="translate(63.623047 0)"/>
       <use xlink:href="#DejaVuSans-30" transform="translate(95.410156 0)"/>
       <use xlink:href="#DejaVuSans-38" transform="translate(159.033203 0)"/>
      </g>
     </g>
    </g>
    <g id="xtick_3">
     <g id="line2d_5">
      <path d="M 264.672432 352.355383 
L 264.672432 7.2 
" clip-path="url(#pb40bb65fc3)" style="fill: none; stroke: #d9dee7; stroke-opacity: 0.85; stroke-width: 0.8; stroke-linecap: square"/>
     </g>
     <g id="line2d_6">
      <g>
       <use xlink:href="#mc5a4389c54" x="264.672432" y="352.355383" style="fill: #1f2a44; stroke: #1f2a44; stroke-width: 0.8"/>
      </g>
     </g>
     <g id="text_3">
      <!-- 0.16 -->
      <g style="fill: #1f2a44" transform="translate(254.652901 366.193977) scale(0.09 -0.09)">
       <defs>
        <path id="DejaVuSans-31" d="M 794 531 
L 1825 531 
L 1825 4091 
L 703 3866 
L 703 4441 
L 1819 4666 
L 2450 4666 
L 2450 531 
L 3481 531 
L 3481 0 
L 794 0 
L 794 531 
z
" transform="scale(0.015625)"/>
        <path id="DejaVuSans-36" d="M 2113 2584 
Q 1688 2584 1439 2293 
Q 1191 2003 1191 1497 
Q 1191 994 1439 701 
Q 1688 409 2113 409 
Q 2538 409 2786 701 
Q 3034 994 3034 1497 
Q 3034 2003 2786 2293 
Q 2538 2584 2113 2584 
z
M 3366 4563 
L 3366 3988 
Q 3128 4100 2886 4159 
Q 2644 4219 2406 4219 
Q 1781 4219 1451 3797 
Q 1122 3375 1075 2522 
Q 1259 2794 1537 2939 
Q 1816 3084 2150 3084 
Q 2853 3084 3261 2657 
Q 3669 2231 3669 1497 
Q 3669 778 3244 343 
Q 2819 -91 2113 -91 
Q 1303 -91 875 529 
Q 447 1150 447 2328 
Q 447 3434 972 4092 
Q 1497 4750 2381 4750 
Q 2619 4750 2861 4703 
Q 3103 4656 3366 4563 
z
" transform="scale(0.015625)"/>
       </defs>
       <use xlink:href="#DejaVuSans-30"/>
       <use xlink:href="#DejaVuSans-2e" transform="translate(63.623047 0)"/>
       <use xlink:href="#DejaVuSans-31" transform="translate(95.410156 0)"/>
       <use xlink:href="#DejaVuSans-36" transform="translate(159.033203 0)"/>
      </g>
     </g>
    </g>
    <g id="xtick_4">
     <g id="line2d_7">
      <path d="M 312.0079 352.355383 
L 312.0079 7.2 
" clip-path="url(#pb40bb65fc3)" style="fill: none; stroke: #d9dee7; stroke-opacity: 0.85; stroke-width: 0.8; stroke-linecap: square"/>
     </g>
     <g id="line2d_8">
      <g>
       <use xlink:href="#mc5a4389c54" x="312.0079" y="352.355383" style="fill: #1f2a44; stroke: #1f2a44; stroke-width: 0.8"/>
      </g>
     </g>
     <g id="text_4">
      <!-- 0.24 -->
      <g style="fill: #1f2a44" transform="translate(301.988369 366.193977) scale(0.09 -0.09)">
       <defs>
        <path id="DejaVuSans-32" d="M 1228 531 
L 3431 531 
L 3431 0 
L 469 0 
L 469 531 
Q 828 903 1448 1529 
Q 2069 2156 2228 2338 
Q 2531 2678 2651 2914 
Q 2772 3150 2772 3378 
Q 2772 3750 2511 3984 
Q 2250 4219 1831 4219 
Q 1534 4219 1204 4116 
Q 875 4013 500 3803 
L 500 4441 
Q 881 4594 1212 4672 
Q 1544 4750 1819 4750 
Q 2544 4750 2975 4387 
Q 3406 4025 3406 3419 
Q 3406 3131 3298 2873 
Q 3191 2616 2906 2266 
Q 2828 2175 2409 1742 
Q 1991 1309 1228 531 
z
" transform="scale(0.015625)"/>
        <path id="DejaVuSans-34" d="M 2419 4116 
L 825 1625 
L 2419 1625 
L 2419 4116 
z
M 2253 4666 
L 3047 4666 
L 3047 1625 
L 3713 1625 
L 3713 1100 
L 3047 1100 
L 3047 0 
L 2419 0 
L 2419 1100 
L 313 1100 
L 313 1709 
L 2253 4666 
z
" transform="scale(0.015625)"/>
       </defs>
       <use xlink:href="#DejaVuSans-30"/>
       <use xlink:href="#DejaVuSans-2e" transform="translate(63.623047 0)"/>
       <use xlink:href="#DejaVuSans-32" transform="translate(95.410156 0)"/>
       <use xlink:href="#DejaVuSans-34" transform="translate(159.033203 0)"/>
      </g>
     </g>
    </g>
    <g id="xtick_5">
     <g id="line2d_9">
      <path d="M 359.343368 352.355383 
L 359.343368 7.2 
" clip-path="url(#pb40bb65fc3)" style="fill: none; stroke: #d9dee7; stroke-opacity: 0.85; stroke-width: 0.8; stroke-linecap: square"/>
     </g>
     <g id="line2d_10">
      <g>
       <use xlink:href="#mc5a4389c54" x="359.343368" y="352.355383" style="fill: #1f2a44; stroke: #1f2a44; stroke-width: 0.8"/>
      </g>
     </g>
     <g id="text_5">
      <!-- 0.32 -->
      <g style="fill: #1f2a44" transform="translate(349.323837 366.193977) scale(0.09 -0.09)">
       <defs>
        <path id="DejaVuSans-33" d="M 2597 2516 
Q 3050 2419 3304 2112 
Q 3559 1806 3559 1356 
Q 3559 666 3084 287 
Q 2609 -91 1734 -91 
Q 1441 -91 1130 -33 
Q 819 25 488 141 
L 488 750 
Q 750 597 1062 519 
Q 1375 441 1716 441 
Q 2309 441 2620 675 
Q 2931 909 2931 1356 
Q 2931 1769 2642 2001 
Q 2353 2234 1838 2234 
L 1294 2234 
L 1294 2753 
L 1863 2753 
Q 2328 2753 2575 2939 
Q 2822 3125 2822 3475 
Q 2822 3834 2567 4026 
Q 2313 4219 1838 4219 
Q 1578 4219 1281 4162 
Q 984 4106 628 3988 
L 628 4550 
Q 988 4650 1302 4700 
Q 1616 4750 1894 4750 
Q 2613 4750 3031 4423 
Q 3450 4097 3450 3541 
Q 3450 3153 3228 2886 
Q 3006 2619 2597 2516 
z
" transform="scale(0.015625)"/>
       </defs>
       <use xlink:href="#DejaVuSans-30"/>
       <use xlink:href="#DejaVuSans-2e" transform="translate(63.623047 0)"/>
       <use xlink:href="#DejaVuSans-33" transform="translate(95.410156 0)"/>
       <use xlink:href="#DejaVuSans-32" transform="translate(159.033203 0)"/>
      </g>
     </g>
    </g>
    <g id="xtick_6">
     <g id="line2d_11">
      <path d="M 406.678836 352.355383 
L 406.678836 7.2 
" clip-path="url(#pb40bb65fc3)" style="fill: none; stroke: #d9dee7; stroke-opacity: 0.85; stroke-width: 0.8; stroke-linecap: square"/>
     </g>
     <g id="line2d_12">
      <g>
       <use xlink:href="#mc5a4389c54" x="406.678836" y="352.355383" style="fill: #1f2a44; stroke: #1f2a44; stroke-width: 0.8"/>
      </g>
     </g>
     <g id="text_6">
      <!-- 0.40 -->
      <g style="fill: #1f2a44" transform="translate(396.659305 366.193977) scale(0.09 -0.09)">
       <use xlink:href="#DejaVuSans-30"/>
       <use xlink:href="#DejaVuSans-2e" transform="translate(63.623047 0)"/>
       <use xlink:href="#DejaVuSans-34" transform="translate(95.410156 0)"/>
       <use xlink:href="#DejaVuSans-30" transform="translate(159.033203 0)"/>
      </g>
     </g>
    </g>
    <g id="text_7">
     <!-- Mean absolute standardized mean difference -->
     <g style="fill: #1f2a44" transform="translate(187.538789 379.284211) scale(0.095 -0.095)">
      <defs>
       <path id="DejaVuSans-4d" d="M 628 4666 
L 1569 4666 
L 2759 1491 
L 3956 4666 
L 4897 4666 
L 4897 0 
L 4281 0 
L 4281 4097 
L 3078 897 
L 2444 897 
L 1241 4097 
L 1241 0 
L 628 0 
L 628 4666 
z
" transform="scale(0.015625)"/>
       <path id="DejaVuSans-65" d="M 3597 1894 
L 3597 1613 
L 953 1613 
Q 991 1019 1311 708 
Q 1631 397 2203 397 
Q 2534 397 2845 478 
Q 3156 559 3463 722 
L 3463 178 
Q 3153 47 2828 -22 
Q 2503 -91 2169 -91 
Q 1331 -91 842 396 
Q 353 884 353 1716 
Q 353 2575 817 3079 
Q 1281 3584 2069 3584 
Q 2775 3584 3186 3129 
Q 3597 2675 3597 1894 
z
M 3022 2063 
Q 3016 2534 2758 2815 
Q 2500 3097 2075 3097 
Q 1594 3097 1305 2825 
Q 1016 2553 972 2059 
L 3022 2063 
z
" transform="scale(0.015625)"/>
       <path id="DejaVuSans-61" d="M 2194 1759 
Q 1497 1759 1228 1600 
Q 959 1441 959 1056 
Q 959 750 1161 570 
Q 1363 391 1709 391 
Q 2188 391 2477 730 
Q 2766 1069 2766 1631 
L 2766 1759 
L 2194 1759 
z
M 3341 1997 
L 3341 0 
L 2766 0 
L 2766 531 
Q 2569 213 2275 61 
Q 1981 -91 1556 -91 
Q 1019 -91 701 211 
Q 384 513 384 1019 
Q 384 1609 779 1909 
Q 1175 2209 1959 2209 
L 2766 2209 
L 2766 2266 
Q 2766 2663 2505 2880 
Q 2244 3097 1772 3097 
Q 1472 3097 1187 3025 
Q 903 2953 641 2809 
L 641 3341 
Q 956 3463 1253 3523 
Q 1550 3584 1831 3584 
Q 2591 3584 2966 3190 
Q 3341 2797 3341 1997 
z
" transform="scale(0.015625)"/>
       <path id="DejaVuSans-6e" d="M 3513 2113 
L 3513 0 
L 2938 0 
L 2938 2094 
Q 2938 2591 2744 2837 
Q 2550 3084 2163 3084 
Q 1697 3084 1428 2787 
Q 1159 2491 1159 1978 
L 1159 0 
L 581 0 
L 581 3500 
L 1159 3500 
L 1159 2956 
Q 1366 3272 1645 3428 
Q 1925 3584 2291 3584 
Q 2894 3584 3203 3211 
Q 3513 2838 3513 2113 
z
" transform="scale(0.015625)"/>
       <path id="DejaVuSans-20" transform="scale(0.015625)"/>
       <path id="DejaVuSans-62" d="M 3116 1747 
Q 3116 2381 2855 2742 
Q 2594 3103 2138 3103 
Q 1681 3103 1420 2742 
Q 1159 2381 1159 1747 
Q 1159 1113 1420 752 
Q 1681 391 2138 391 
Q 2594 391 2855 752 
Q 3116 1113 3116 1747 
z
M 1159 2969 
Q 1341 3281 1617 3432 
Q 1894 3584 2278 3584 
Q 2916 3584 3314 3078 
Q 3713 2572 3713 1747 
Q 3713 922 3314 415 
Q 2916 -91 2278 -91 
Q 1894 -91 1617 61 
Q 1341 213 1159 525 
L 1159 0 
L 581 0 
L 581 4863 
L 1159 4863 
L 1159 2969 
z
" transform="scale(0.015625)"/>
       <path id="DejaVuSans-73" d="M 2834 3397 
L 2834 2853 
Q 2591 2978 2328 3040 
Q 2066 3103 1784 3103 
Q 1356 3103 1142 2972 
Q 928 2841 928 2578 
Q 928 2378 1081 2264 
Q 1234 2150 1697 2047 
L 1894 2003 
Q 2506 1872 2764 1633 
Q 3022 1394 3022 966 
Q 3022 478 2636 193 
Q 2250 -91 1575 -91 
Q 1294 -91 989 -36 
Q 684 19 347 128 
L 347 722 
Q 666 556 975 473 
Q 1284 391 1588 391 
Q 1994 391 2212 530 
Q 2431 669 2431 922 
Q 2431 1156 2273 1281 
Q 2116 1406 1581 1522 
L 1381 1569 
Q 847 1681 609 1914 
Q 372 2147 372 2553 
Q 372 3047 722 3315 
Q 1072 3584 1716 3584 
Q 2034 3584 2315 3537 
Q 2597 3491 2834 3397 
z
" transform="scale(0.015625)"/>
       <path id="DejaVuSans-6f" d="M 1959 3097 
Q 1497 3097 1228 2736 
Q 959 2375 959 1747 
Q 959 1119 1226 758 
Q 1494 397 1959 397 
Q 2419 397 2687 759 
Q 2956 1122 2956 1747 
Q 2956 2369 2687 2733 
Q 2419 3097 1959 3097 
z
M 1959 3584 
Q 2709 3584 3137 3096 
Q 3566 2609 3566 1747 
Q 3566 888 3137 398 
Q 2709 -91 1959 -91 
Q 1206 -91 779 398 
Q 353 888 353 1747 
Q 353 2609 779 3096 
Q 1206 3584 1959 3584 
z
" transform="scale(0.015625)"/>
       <path id="DejaVuSans-6c" d="M 603 4863 
L 1178 4863 
L 1178 0 
L 603 0 
L 603 4863 
z
" transform="scale(0.015625)"/>
       <path id="DejaVuSans-75" d="M 544 1381 
L 544 3500 
L 1119 3500 
L 1119 1403 
Q 1119 906 1312 657 
Q 1506 409 1894 409 
Q 2359 409 2629 706 
Q 2900 1003 2900 1516 
L 2900 3500 
L 3475 3500 
L 3475 0 
L 2900 0 
L 2900 538 
Q 2691 219 2414 64 
Q 2138 -91 1772 -91 
Q 1169 -91 856 284 
Q 544 659 544 1381 
z
M 1991 3584 
L 1991 3584 
z
" transform="scale(0.015625)"/>
       <path id="DejaVuSans-74" d="M 1172 4494 
L 1172 3500 
L 2356 3500 
L 2356 3053 
L 1172 3053 
L 1172 1153 
Q 1172 725 1289 603 
Q 1406 481 1766 481 
L 2356 481 
L 2356 0 
L 1766 0 
Q 1100 0 847 248 
Q 594 497 594 1153 
L 594 3053 
L 172 3053 
L 172 3500 
L 594 3500 
L 594 4494 
L 1172 4494 
z
" transform="scale(0.015625)"/>
       <path id="DejaVuSans-64" d="M 2906 2969 
L 2906 4863 
L 3481 4863 
L 3481 0 
L 2906 0 
L 2906 525 
Q 2725 213 2448 61 
Q 2172 -91 1784 -91 
Q 1150 -91 751 415 
Q 353 922 353 1747 
Q 353 2572 751 3078 
Q 1150 3584 1784 3584 
Q 2172 3584 2448 3432 
Q 2725 3281 2906 2969 
z
M 947 1747 
Q 947 1113 1208 752 
Q 1469 391 1925 391 
Q 2381 391 2643 752 
Q 2906 1113 2906 1747 
Q 2906 2381 2643 2742 
Q 2381 3103 1925 3103 
Q 1469 3103 1208 2742 
Q 947 2381 947 1747 
z
" transform="scale(0.015625)"/>
       <path id="DejaVuSans-72" d="M 2631 2963 
Q 2534 3019 2420 3045 
Q 2306 3072 2169 3072 
Q 1681 3072 1420 2755 
Q 1159 2438 1159 1844 
L 1159 0 
L 581 0 
L 581 3500 
L 1159 3500 
L 1159 2956 
Q 1341 3275 1631 3429 
Q 1922 3584 2338 3584 
Q 2397 3584 2469 3576 
Q 2541 3569 2628 3553 
L 2631 2963 
z
" transform="scale(0.015625)"/>
       <path id="DejaVuSans-69" d="M 603 3500 
L 1178 3500 
L 1178 0 
L 603 0 
L 603 3500 
z
M 603 4863 
L 1178 4863 
L 1178 4134 
L 603 4134 
L 603 4863 
z
" transform="scale(0.015625)"/>
       <path id="DejaVuSans-7a" d="M 353 3500 
L 3084 3500 
L 3084 2975 
L 922 459 
L 3084 459 
L 3084 0 
L 275 0 
L 275 525 
L 2438 3041 
L 353 3041 
L 353 3500 
z
" transform="scale(0.015625)"/>
       <path id="DejaVuSans-6d" d="M 3328 2828 
Q 3544 3216 3844 3400 
Q 4144 3584 4550 3584 
Q 5097 3584 5394 3201 
Q 5691 2819 5691 2113 
L 5691 0 
L 5113 0 
L 5113 2094 
Q 5113 2597 4934 2840 
Q 4756 3084 4391 3084 
Q 3944 3084 3684 2787 
Q 3425 2491 3425 1978 
L 3425 0 
L 2847 0 
L 2847 2094 
Q 2847 2600 2669 2842 
Q 2491 3084 2119 3084 
Q 1678 3084 1418 2786 
Q 1159 2488 1159 1978 
L 1159 0 
L 581 0 
L 581 3500 
L 1159 3500 
L 1159 2956 
Q 1356 3278 1631 3431 
Q 1906 3584 2284 3584 
Q 2666 3584 2933 3390 
Q 3200 3197 3328 2828 
z
" transform="scale(0.015625)"/>
       <path id="DejaVuSans-66" d="M 2375 4863 
L 2375 4384 
L 1825 4384 
Q 1516 4384 1395 4259 
Q 1275 4134 1275 3809 
L 1275 3500 
L 2222 3500 
L 2222 3053 
L 1275 3053 
L 1275 0 
L 697 0 
L 697 3053 
L 147 3053 
L 147 3500 
L 697 3500 
L 697 3744 
Q 697 4328 969 4595 
Q 1241 4863 1831 4863 
L 2375 4863 
z
" transform="scale(0.015625)"/>
       <path id="DejaVuSans-63" d="M 3122 3366 
L 3122 2828 
Q 2878 2963 2633 3030 
Q 2388 3097 2138 3097 
Q 1578 3097 1268 2742 
Q 959 2388 959 1747 
Q 959 1106 1268 751 
Q 1578 397 2138 397 
Q 2388 397 2633 464 
Q 2878 531 3122 666 
L 3122 134 
Q 2881 22 2623 -34 
Q 2366 -91 2075 -91 
Q 1284 -91 818 406 
Q 353 903 353 1747 
Q 353 2603 823 3093 
Q 1294 3584 2113 3584 
Q 2378 3584 2631 3529 
Q 2884 3475 3122 3366 
z
" transform="scale(0.015625)"/>
      </defs>
      <use xlink:href="#DejaVuSans-4d"/>
      <use xlink:href="#DejaVuSans-65" transform="translate(86.279297 0)"/>
      <use xlink:href="#DejaVuSans-61" transform="translate(147.802734 0)"/>
      <use xlink:href="#DejaVuSans-6e" transform="translate(209.082031 0)"/>
      <use xlink:href="#DejaVuSans-20" transform="translate(272.460938 0)"/>
      <use xlink:href="#DejaVuSans-61" transform="translate(304.248047 0)"/>
      <use xlink:href="#DejaVuSans-62" transform="translate(365.527344 0)"/>
      <use xlink:href="#DejaVuSans-73" transform="translate(429.003906 0)"/>
      <use xlink:href="#DejaVuSans-6f" transform="translate(481.103516 0)"/>
      <use xlink:href="#DejaVuSans-6c" transform="translate(542.285156 0)"/>
      <use xlink:href="#DejaVuSans-75" transform="translate(570.068359 0)"/>
      <use xlink:href="#DejaVuSans-74" transform="translate(633.447266 0)"/>
      <use xlink:href="#DejaVuSans-65" transform="translate(672.65625 0)"/>
      <use xlink:href="#DejaVuSans-20" transform="translate(734.179688 0)"/>
      <use xlink:href="#DejaVuSans-73" transform="translate(765.966797 0)"/>
      <use xlink:href="#DejaVuSans-74" transform="translate(818.066406 0)"/>
      <use xlink:href="#DejaVuSans-61" transform="translate(857.275391 0)"/>
      <use xlink:href="#DejaVuSans-6e" transform="translate(918.554688 0)"/>
      <use xlink:href="#DejaVuSans-64" transform="translate(981.933594 0)"/>
      <use xlink:href="#DejaVuSans-61" transform="translate(1045.410156 0)"/>
      <use xlink:href="#DejaVuSans-72" transform="translate(1106.689453 0)"/>
      <use xlink:href="#DejaVuSans-64" transform="translate(1146.052734 0)"/>
      <use xlink:href="#DejaVuSans-69" transform="translate(1209.529297 0)"/>
      <use xlink:href="#DejaVuSans-7a" transform="translate(1237.3125 0)"/>
      <use xlink:href="#DejaVuSans-65" transform="translate(1289.802734 0)"/>
      <use xlink:href="#DejaVuSans-64" transform="translate(1351.326172 0)"/>
      <use xlink:href="#DejaVuSans-20" transform="translate(1414.802734 0)"/>
      <use xlink:href="#DejaVuSans-6d" transform="translate(1446.589844 0)"/>
      <use xlink:href="#DejaVuSans-65" transform="translate(1544.001953 0)"/>
      <use xlink:href="#DejaVuSans-61" transform="translate(1605.525391 0)"/>
      <use xlink:href="#DejaVuSans-6e" transform="translate(1666.804688 0)"/>
      <use xlink:href="#DejaVuSans-20" transform="translate(1730.183594 0)"/>
      <use xlink:href="#DejaVuSans-64" transform="translate(1761.970703 0)"/>
      <use xlink:href="#DejaVuSans-69" transform="translate(1825.447266 0)"/>
      <use xlink:href="#DejaVuSans-66" transform="translate(1853.230469 0)"/>
      <use xlink:href="#DejaVuSans-66" transform="translate(1888.435547 0)"/>
      <use xlink:href="#DejaVuSans-65" transform="translate(1923.640625 0)"/>
      <use xlink:href="#DejaVuSans-72" transform="translate(1985.164062 0)"/>
      <use xlink:href="#DejaVuSans-65" transform="translate(2024.027344 0)"/>
      <use xlink:href="#DejaVuSans-6e" transform="translate(2085.550781 0)"/>
      <use xlink:href="#DejaVuSans-63" transform="translate(2148.929688 0)"/>
      <use xlink:href="#DejaVuSans-65" transform="translate(2203.910156 0)"/>
     </g>
    </g>
   </g>
   <g id="matplotlib.axis_2">
    <g id="ytick_1">
     <g id="line2d_13">
      <defs>
       <path id="mcee6f4aba5" d="M 0 0 
L -3.5 0 
" style="stroke: #1f2a44; stroke-width: 0.8"/>
      </defs>
      <g>
       <use xlink:href="#mcee6f4aba5" x="165.852812" y="336.666502" style="fill: #1f2a44; stroke: #1f2a44; stroke-width: 0.8"/>
      </g>
     </g>
     <g id="text_8">
      <!-- Lalonde: Regression adjustment -->
      <g style="fill: #1f2a44" transform="translate(14.198906 340.085799) scale(0.09 -0.09)">
       <defs>
        <path id="DejaVuSans-4c" d="M 628 4666 
L 1259 4666 
L 1259 531 
L 3531 531 
L 3531 0 
L 628 0 
L 628 4666 
z
" transform="scale(0.015625)"/>
        <path id="DejaVuSans-3a" d="M 750 794 
L 1409 794 
L 1409 0 
L 750 0 
L 750 794 
z
M 750 3309 
L 1409 3309 
L 1409 2516 
L 750 2516 
L 750 3309 
z
" transform="scale(0.015625)"/>
        <path id="DejaVuSans-52" d="M 2841 2188 
Q 3044 2119 3236 1894 
Q 3428 1669 3622 1275 
L 4263 0 
L 3584 0 
L 2988 1197 
Q 2756 1666 2539 1819 
Q 2322 1972 1947 1972 
L 1259 1972 
L 1259 0 
L 628 0 
L 628 4666 
L 2053 4666 
Q 2853 4666 3247 4331 
Q 3641 3997 3641 3322 
Q 3641 2881 3436 2590 
Q 3231 2300 2841 2188 
z
M 1259 4147 
L 1259 2491 
L 2053 2491 
Q 2509 2491 2742 2702 
Q 2975 2913 2975 3322 
Q 2975 3731 2742 3939 
Q 2509 4147 2053 4147 
L 1259 4147 
z
" transform="scale(0.015625)"/>
        <path id="DejaVuSans-67" d="M 2906 1791 
Q 2906 2416 2648 2759 
Q 2391 3103 1925 3103 
Q 1463 3103 1205 2759 
Q 947 2416 947 1791 
Q 947 1169 1205 825 
Q 1463 481 1925 481 
Q 2391 481 2648 825 
Q 2906 1169 2906 1791 
z
M 3481 434 
Q 3481 -459 3084 -895 
Q 2688 -1331 1869 -1331 
Q 1566 -1331 1297 -1286 
Q 1028 -1241 775 -1147 
L 775 -588 
Q 1028 -725 1275 -790 
Q 1522 -856 1778 -856 
Q 2344 -856 2625 -561 
Q 2906 -266 2906 331 
L 2906 616 
Q 2728 306 2450 153 
Q 2172 0 1784 0 
Q 1141 0 747 490 
Q 353 981 353 1791 
Q 353 2603 747 3093 
Q 1141 3584 1784 3584 
Q 2172 3584 2450 3431 
Q 2728 3278 2906 2969 
L 2906 3500 
L 3481 3500 
L 3481 434 
z
" transform="scale(0.015625)"/>
        <path id="DejaVuSans-6a" d="M 603 3500 
L 1178 3500 
L 1178 -63 
Q 1178 -731 923 -1031 
Q 669 -1331 103 -1331 
L -116 -1331 
L -116 -844 
L 38 -844 
Q 366 -844 484 -692 
Q 603 -541 603 -63 
L 603 3500 
z
M 603 4863 
L 1178 4863 
L 1178 4134 
L 603 4134 
L 603 4863 
z
" transform="scale(0.015625)"/>
       </defs>
       <use xlink:href="#DejaVuSans-4c"/>
       <use xlink:href="#DejaVuSans-61" transform="translate(55.712891 0)"/>
       <use xlink:href="#DejaVuSans-6c" transform="translate(116.992188 0)"/>
       <use xlink:href="#DejaVuSans-6f" transform="translate(144.775391 0)"/>
       <use xlink:href="#DejaVuSans-6e" transform="translate(205.957031 0)"/>
       <use xlink:href="#DejaVuSans-64" transform="translate(269.335938 0)"/>
       <use xlink:href="#DejaVuSans-65" transform="translate(332.8125 0)"/>
       <use xlink:href="#DejaVuSans-3a" transform="translate(394.335938 0)"/>
       <use xlink:href="#DejaVuSans-20" transform="translate(428.027344 0)"/>
       <use xlink:href="#DejaVuSans-52" transform="translate(459.814453 0)"/>
       <use xlink:href="#DejaVuSans-65" transform="translate(524.796875 0)"/>
       <use xlink:href="#DejaVuSans-67" transform="translate(586.320312 0)"/>
       <use xlink:href="#DejaVuSans-72" transform="translate(649.796875 0)"/>
       <use xlink:href="#DejaVuSans-65" transform="translate(688.660156 0)"/>
       <use xlink:href="#DejaVuSans-73" transform="translate(750.183594 0)"/>
       <use xlink:href="#DejaVuSans-73" transform="translate(802.283203 0)"/>
       <use xlink:href="#DejaVuSans-69" transform="translate(854.382812 0)"/>
       <use xlink:href="#DejaVuSans-6f" transform="translate(882.166016 0)"/>
       <use xlink:href="#DejaVuSans-6e" transform="translate(943.347656 0)"/>
       <use xlink:href="#DejaVuSans-20" transform="translate(1006.726562 0)"/>
       <use xlink:href="#DejaVuSans-61" transform="translate(1038.513672 0)"/>
       <use xlink:href="#DejaVuSans-64" transform="translate(1099.792969 0)"/>
       <use xlink:href="#DejaVuSans-6a" transform="translate(1163.269531 0)"/>
       <use xlink:href="#DejaVuSans-75" transform="translate(1191.052734 0)"/>
       <use xlink:href="#DejaVuSans-73" transform="translate(1254.431641 0)"/>
       <use xlink:href="#DejaVuSans-74" transform="translate(1306.53125 0)"/>
       <use xlink:href="#DejaVuSans-6d" transform="translate(1345.740234 0)"/>
       <use xlink:href="#DejaVuSans-65" transform="translate(1443.152344 0)"/>
       <use xlink:href="#DejaVuSans-6e" transform="translate(1504.675781 0)"/>
       <use xlink:href="#DejaVuSans-74" transform="translate(1568.054688 0)"/>
      </g>
     </g>
    </g>
    <g id="ytick_2">
     <g id="line2d_14">
      <g>
       <use xlink:href="#mcee6f4aba5" x="165.852812" y="308.141264" style="fill: #1f2a44; stroke: #1f2a44; stroke-width: 0.8"/>
      </g>
     </g>
     <g id="text_9">
      <!-- NHEFS: Regression adjustment -->
      <g style="fill: #1f2a44" transform="translate(19.770469 311.560561) scale(0.09 -0.09)">
       <defs>
        <path id="DejaVuSans-4e" d="M 628 4666 
L 1478 4666 
L 3547 763 
L 3547 4666 
L 4159 4666 
L 4159 0 
L 3309 0 
L 1241 3903 
L 1241 0 
L 628 0 
L 628 4666 
z
" transform="scale(0.015625)"/>
        <path id="DejaVuSans-48" d="M 628 4666 
L 1259 4666 
L 1259 2753 
L 3553 2753 
L 3553 4666 
L 4184 4666 
L 4184 0 
L 3553 0 
L 3553 2222 
L 1259 2222 
L 1259 0 
L 628 0 
L 628 4666 
z
" transform="scale(0.015625)"/>
        <path id="DejaVuSans-45" d="M 628 4666 
L 3578 4666 
L 3578 4134 
L 1259 4134 
L 1259 2753 
L 3481 2753 
L 3481 2222 
L 1259 2222 
L 1259 531 
L 3634 531 
L 3634 0 
L 628 0 
L 628 4666 
z
" transform="scale(0.015625)"/>
        <path id="DejaVuSans-46" d="M 628 4666 
L 3309 4666 
L 3309 4134 
L 1259 4134 
L 1259 2759 
L 3109 2759 
L 3109 2228 
L 1259 2228 
L 1259 0 
L 628 0 
L 628 4666 
z
" transform="scale(0.015625)"/>
        <path id="DejaVuSans-53" d="M 3425 4513 
L 3425 3897 
Q 3066 4069 2747 4153 
Q 2428 4238 2131 4238 
Q 1616 4238 1336 4038 
Q 1056 3838 1056 3469 
Q 1056 3159 1242 3001 
Q 1428 2844 1947 2747 
L 2328 2669 
Q 3034 2534 3370 2195 
Q 3706 1856 3706 1288 
Q 3706 609 3251 259 
Q 2797 -91 1919 -91 
Q 1588 -91 1214 -16 
Q 841 59 441 206 
L 441 856 
Q 825 641 1194 531 
Q 1563 422 1919 422 
Q 2459 422 2753 634 
Q 3047 847 3047 1241 
Q 3047 1584 2836 1778 
Q 2625 1972 2144 2069 
L 1759 2144 
Q 1053 2284 737 2584 
Q 422 2884 422 3419 
Q 422 4038 858 4394 
Q 1294 4750 2059 4750 
Q 2388 4750 2728 4690 
Q 3069 4631 3425 4513 
z
" transform="scale(0.015625)"/>
       </defs>
       <use xlink:href="#DejaVuSans-4e"/>
       <use xlink:href="#DejaVuSans-48" transform="translate(74.804688 0)"/>
       <use xlink:href="#DejaVuSans-45" transform="translate(150 0)"/>
       <use xlink:href="#DejaVuSans-46" transform="translate(213.183594 0)"/>
       <use xlink:href="#DejaVuSans-53" transform="translate(268.953125 0)"/>
       <use xlink:href="#DejaVuSans-3a" transform="translate(332.429688 0)"/>
       <use xlink:href="#DejaVuSans-20" transform="translate(366.121094 0)"/>
       <use xlink:href="#DejaVuSans-52" transform="translate(397.908203 0)"/>
       <use xlink:href="#DejaVuSans-65" transform="translate(462.890625 0)"/>
       <use xlink:href="#DejaVuSans-67" transform="translate(524.414062 0)"/>
       <use xlink:href="#DejaVuSans-72" transform="translate(587.890625 0)"/>
       <use xlink:href="#DejaVuSans-65" transform="translate(626.753906 0)"/>
       <use xlink:href="#DejaVuSans-73" transform="translate(688.277344 0)"/>
       <use xlink:href="#DejaVuSans-73" transform="translate(740.376953 0)"/>
       <use xlink:href="#DejaVuSans-69" transform="translate(792.476562 0)"/>
       <use xlink:href="#DejaVuSans-6f" transform="translate(820.259766 0)"/>
       <use xlink:href="#DejaVuSans-6e" transform="translate(881.441406 0)"/>
       <use xlink:href="#DejaVuSans-20" transform="translate(944.820312 0)"/>
       <use xlink:href="#DejaVuSans-61" transform="translate(976.607422 0)"/>
       <use xlink:href="#DejaVuSans-64" transform="translate(1037.886719 0)"/>
       <use xlink:href="#DejaVuSans-6a" transform="translate(1101.363281 0)"/>
       <use xlink:href="#DejaVuSans-75" transform="translate(1129.146484 0)"/>
       <use xlink:href="#DejaVuSans-73" transform="translate(1192.525391 0)"/>
       <use xlink:href="#DejaVuSans-74" transform="translate(1244.625 0)"/>
       <use xlink:href="#DejaVuSans-6d" transform="translate(1283.833984 0)"/>
       <use xlink:href="#DejaVuSans-65" transform="translate(1381.246094 0)"/>
       <use xlink:href="#DejaVuSans-6e" transform="translate(1442.769531 0)"/>
       <use xlink:href="#DejaVuSans-74" transform="translate(1506.148438 0)"/>
      </g>
     </g>
    </g>
    <g id="ytick_3">
     <g id="line2d_15">
      <g>
       <use xlink:href="#mcee6f4aba5" x="165.852812" y="279.616025" style="fill: #1f2a44; stroke: #1f2a44; stroke-width: 0.8"/>
      </g>
     </g>
     <g id="text_10">
      <!-- Synthetic: Regression adjustment -->
      <g style="fill: #1f2a44" transform="translate(7.2 283.035322) scale(0.09 -0.09)">
       <defs>
        <path id="DejaVuSans-79" d="M 2059 -325 
Q 1816 -950 1584 -1140 
Q 1353 -1331 966 -1331 
L 506 -1331 
L 506 -850 
L 844 -850 
Q 1081 -850 1212 -737 
Q 1344 -625 1503 -206 
L 1606 56 
L 191 3500 
L 800 3500 
L 1894 763 
L 2988 3500 
L 3597 3500 
L 2059 -325 
z
" transform="scale(0.015625)"/>
        <path id="DejaVuSans-68" d="M 3513 2113 
L 3513 0 
L 2938 0 
L 2938 2094 
Q 2938 2591 2744 2837 
Q 2550 3084 2163 3084 
Q 1697 3084 1428 2787 
Q 1159 2491 1159 1978 
L 1159 0 
L 581 0 
L 581 4863 
L 1159 4863 
L 1159 2956 
Q 1366 3272 1645 3428 
Q 1925 3584 2291 3584 
Q 2894 3584 3203 3211 
Q 3513 2838 3513 2113 
z
" transform="scale(0.015625)"/>
       </defs>
       <use xlink:href="#DejaVuSans-53"/>
       <use xlink:href="#DejaVuSans-79" transform="translate(63.476562 0)"/>
       <use xlink:href="#DejaVuSans-6e" transform="translate(122.65625 0)"/>
       <use xlink:href="#DejaVuSans-74" transform="translate(186.035156 0)"/>
       <use xlink:href="#DejaVuSans-68" transform="translate(225.244141 0)"/>
       <use xlink:href="#DejaVuSans-65" transform="translate(288.623047 0)"/>
       <use xlink:href="#DejaVuSans-74" transform="translate(350.146484 0)"/>
       <use xlink:href="#DejaVuSans-69" transform="translate(389.355469 0)"/>
       <use xlink:href="#DejaVuSans-63" transform="translate(417.138672 0)"/>
       <use xlink:href="#DejaVuSans-3a" transform="translate(472.119141 0)"/>
       <use xlink:href="#DejaVuSans-20" transform="translate(505.810547 0)"/>
       <use xlink:href="#DejaVuSans-52" transform="translate(537.597656 0)"/>
       <use xlink:href="#DejaVuSans-65" transform="translate(602.580078 0)"/>
       <use xlink:href="#DejaVuSans-67" transform="translate(664.103516 0)"/>
       <use xlink:href="#DejaVuSans-72" transform="translate(727.580078 0)"/>
       <use xlink:href="#DejaVuSans-65" transform="translate(766.443359 0)"/>
       <use xlink:href="#DejaVuSans-73" transform="translate(827.966797 0)"/>
       <use xlink:href="#DejaVuSans-73" transform="translate(880.066406 0)"/>
       <use xlink:href="#DejaVuSans-69" transform="translate(932.166016 0)"/>
       <use xlink:href="#DejaVuSans-6f" transform="translate(959.949219 0)"/>
       <use xlink:href="#DejaVuSans-6e" transform="translate(1021.130859 0)"/>
       <use xlink:href="#DejaVuSans-20" transform="translate(1084.509766 0)"/>
       <use xlink:href="#DejaVuSans-61" transform="translate(1116.296875 0)"/>
       <use xlink:href="#DejaVuSans-64" transform="translate(1177.576172 0)"/>
       <use xlink:href="#DejaVuSans-6a" transform="translate(1241.052734 0)"/>
       <use xlink:href="#DejaVuSans-75" transform="translate(1268.835938 0)"/>
       <use xlink:href="#DejaVuSans-73" transform="translate(1332.214844 0)"/>
       <use xlink:href="#DejaVuSans-74" transform="translate(1384.314453 0)"/>
       <use xlink:href="#DejaVuSans-6d" transform="translate(1423.523438 0)"/>
       <use xlink:href="#DejaVuSans-65" transform="translate(1520.935547 0)"/>
       <use xlink:href="#DejaVuSans-6e" transform="translate(1582.458984 0)"/>
       <use xlink:href="#DejaVuSans-74" transform="translate(1645.837891 0)"/>
      </g>
     </g>
    </g>
    <g id="ytick_4">
     <g id="line2d_16">
      <g>
       <use xlink:href="#mcee6f4aba5" x="165.852812" y="251.090787" style="fill: #1f2a44; stroke: #1f2a44; stroke-width: 0.8"/>
      </g>
     </g>
     <g id="text_11">
      <!-- NHEFS: Propensity matching -->
      <g style="fill: #1f2a44" transform="translate(30.526875 254.510084) scale(0.09 -0.09)">
       <defs>
        <path id="DejaVuSans-50" d="M 1259 4147 
L 1259 2394 
L 2053 2394 
Q 2494 2394 2734 2622 
Q 2975 2850 2975 3272 
Q 2975 3691 2734 3919 
Q 2494 4147 2053 4147 
L 1259 4147 
z
M 628 4666 
L 2053 4666 
Q 2838 4666 3239 4311 
Q 3641 3956 3641 3272 
Q 3641 2581 3239 2228 
Q 2838 1875 2053 1875 
L 1259 1875 
L 1259 0 
L 628 0 
L 628 4666 
z
" transform="scale(0.015625)"/>
        <path id="DejaVuSans-70" d="M 1159 525 
L 1159 -1331 
L 581 -1331 
L 581 3500 
L 1159 3500 
L 1159 2969 
Q 1341 3281 1617 3432 
Q 1894 3584 2278 3584 
Q 2916 3584 3314 3078 
Q 3713 2572 3713 1747 
Q 3713 922 3314 415 
Q 2916 -91 2278 -91 
Q 1894 -91 1617 61 
Q 1341 213 1159 525 
z
M 3116 1747 
Q 3116 2381 2855 2742 
Q 2594 3103 2138 3103 
Q 1681 3103 1420 2742 
Q 1159 2381 1159 1747 
Q 1159 1113 1420 752 
Q 1681 391 2138 391 
Q 2594 391 2855 752 
Q 3116 1113 3116 1747 
z
" transform="scale(0.015625)"/>
       </defs>
       <use xlink:href="#DejaVuSans-4e"/>
       <use xlink:href="#DejaVuSans-48" transform="translate(74.804688 0)"/>
       <use xlink:href="#DejaVuSans-45" transform="translate(150 0)"/>
       <use xlink:href="#DejaVuSans-46" transform="translate(213.183594 0)"/>
       <use xlink:href="#DejaVuSans-53" transform="translate(268.953125 0)"/>
       <use xlink:href="#DejaVuSans-3a" transform="translate(332.429688 0)"/>
       <use xlink:href="#DejaVuSans-20" transform="translate(366.121094 0)"/>
       <use xlink:href="#DejaVuSans-50" transform="translate(397.908203 0)"/>
       <use xlink:href="#DejaVuSans-72" transform="translate(456.460938 0)"/>
       <use xlink:href="#DejaVuSans-6f" transform="translate(495.324219 0)"/>
       <use xlink:href="#DejaVuSans-70" transform="translate(556.505859 0)"/>
       <use xlink:href="#DejaVuSans-65" transform="translate(619.982422 0)"/>
       <use xlink:href="#DejaVuSans-6e" transform="translate(681.505859 0)"/>
       <use xlink:href="#DejaVuSans-73" transform="translate(744.884766 0)"/>
       <use xlink:href="#DejaVuSans-69" transform="translate(796.984375 0)"/>
       <use xlink:href="#DejaVuSans-74" transform="translate(824.767578 0)"/>
       <use xlink:href="#DejaVuSans-79" transform="translate(863.976562 0)"/>
       <use xlink:href="#DejaVuSans-20" transform="translate(923.15625 0)"/>
       <use xlink:href="#DejaVuSans-6d" transform="translate(954.943359 0)"/>
       <use xlink:href="#DejaVuSans-61" transform="translate(1052.355469 0)"/>
       <use xlink:href="#DejaVuSans-74" transform="translate(1113.634766 0)"/>
       <use xlink:href="#DejaVuSans-63" transform="translate(1152.84375 0)"/>
       <use xlink:href="#DejaVuSans-68" transform="translate(1207.824219 0)"/>
       <use xlink:href="#DejaVuSans-69" transform="translate(1271.203125 0)"/>
       <use xlink:href="#DejaVuSans-6e" transform="translate(1298.986328 0)"/>
       <use xlink:href="#DejaVuSans-67" transform="translate(1362.365234 0)"/>
      </g>
     </g>
    </g>
    <g id="ytick_5">
     <g id="line2d_17">
      <g>
       <use xlink:href="#mcee6f4aba5" x="165.852812" y="222.565549" style="fill: #1f2a44; stroke: #1f2a44; stroke-width: 0.8"/>
      </g>
     </g>
     <g id="text_12">
      <!-- NHEFS: IPW -->
      <g style="fill: #1f2a44" transform="translate(106.059375 225.984846) scale(0.09 -0.09)">
       <defs>
        <path id="DejaVuSans-49" d="M 628 4666 
L 1259 4666 
L 1259 0 
L 628 0 
L 628 4666 
z
" transform="scale(0.015625)"/>
        <path id="DejaVuSans-57" d="M 213 4666 
L 850 4666 
L 1831 722 
L 2809 4666 
L 3519 4666 
L 4500 722 
L 5478 4666 
L 6119 4666 
L 4947 0 
L 4153 0 
L 3169 4050 
L 2175 0 
L 1381 0 
L 213 4666 
z
" transform="scale(0.015625)"/>
       </defs>
       <use xlink:href="#DejaVuSans-4e"/>
       <use xlink:href="#DejaVuSans-48" transform="translate(74.804688 0)"/>
       <use xlink:href="#DejaVuSans-45" transform="translate(150 0)"/>
       <use xlink:href="#DejaVuSans-46" transform="translate(213.183594 0)"/>
       <use xlink:href="#DejaVuSans-53" transform="translate(268.953125 0)"/>
       <use xlink:href="#DejaVuSans-3a" transform="translate(332.429688 0)"/>
       <use xlink:href="#DejaVuSans-20" transform="translate(366.121094 0)"/>
       <use xlink:href="#DejaVuSans-49" transform="translate(397.908203 0)"/>
       <use xlink:href="#DejaVuSans-50" transform="translate(427.400391 0)"/>
       <use xlink:href="#DejaVuSans-57" transform="translate(487.703125 0)"/>
      </g>
     </g>
    </g>
    <g id="ytick_6">
     <g id="line2d_18">
      <g>
       <use xlink:href="#mcee6f4aba5" x="165.852812" y="194.040311" style="fill: #1f2a44; stroke: #1f2a44; stroke-width: 0.8"/>
      </g>
     </g>
     <g id="text_13">
      <!-- NHEFS: Doubly robust -->
      <g style="fill: #1f2a44" transform="translate(59.859844 197.459608) scale(0.09 -0.09)">
       <defs>
        <path id="DejaVuSans-44" d="M 1259 4147 
L 1259 519 
L 2022 519 
Q 2988 519 3436 956 
Q 3884 1394 3884 2338 
Q 3884 3275 3436 3711 
Q 2988 4147 2022 4147 
L 1259 4147 
z
M 628 4666 
L 1925 4666 
Q 3281 4666 3915 4102 
Q 4550 3538 4550 2338 
Q 4550 1131 3912 565 
Q 3275 0 1925 0 
L 628 0 
L 628 4666 
z
" transform="scale(0.015625)"/>
       </defs>
       <use xlink:href="#DejaVuSans-4e"/>
       <use xlink:href="#DejaVuSans-48" transform="translate(74.804688 0)"/>
       <use xlink:href="#DejaVuSans-45" transform="translate(150 0)"/>
       <use xlink:href="#DejaVuSans-46" transform="translate(213.183594 0)"/>
       <use xlink:href="#DejaVuSans-53" transform="translate(268.953125 0)"/>
       <use xlink:href="#DejaVuSans-3a" transform="translate(332.429688 0)"/>
       <use xlink:href="#DejaVuSans-20" transform="translate(366.121094 0)"/>
       <use xlink:href="#DejaVuSans-44" transform="translate(397.908203 0)"/>
       <use xlink:href="#DejaVuSans-6f" transform="translate(474.910156 0)"/>
       <use xlink:href="#DejaVuSans-75" transform="translate(536.091797 0)"/>
       <use xlink:href="#DejaVuSans-62" transform="translate(599.470703 0)"/>
       <use xlink:href="#DejaVuSans-6c" transform="translate(662.947266 0)"/>
       <use xlink:href="#DejaVuSans-79" transform="translate(690.730469 0)"/>
       <use xlink:href="#DejaVuSans-20" transform="translate(749.910156 0)"/>
       <use xlink:href="#DejaVuSans-72" transform="translate(781.697266 0)"/>
       <use xlink:href="#DejaVuSans-6f" transform="translate(820.560547 0)"/>
       <use xlink:href="#DejaVuSans-62" transform="translate(881.742188 0)"/>
       <use xlink:href="#DejaVuSans-75" transform="translate(945.21875 0)"/>
       <use xlink:href="#DejaVuSans-73" transform="translate(1008.597656 0)"/>
       <use xlink:href="#DejaVuSans-74" transform="translate(1060.697266 0)"/>
      </g>
     </g>
    </g>
    <g id="ytick_7">
     <g id="line2d_19">
      <g>
       <use xlink:href="#mcee6f4aba5" x="165.852812" y="165.515072" style="fill: #1f2a44; stroke: #1f2a44; stroke-width: 0.8"/>
      </g>
     </g>
     <g id="text_14">
      <!-- Lalonde: Doubly robust -->
      <g style="fill: #1f2a44" transform="translate(54.288281 168.934369) scale(0.09 -0.09)">
       <use xlink:href="#DejaVuSans-4c"/>
       <use xlink:href="#DejaVuSans-61" transform="translate(55.712891 0)"/>
       <use xlink:href="#DejaVuSans-6c" transform="translate(116.992188 0)"/>
       <use xlink:href="#DejaVuSans-6f" transform="translate(144.775391 0)"/>
       <use xlink:href="#DejaVuSans-6e" transform="translate(205.957031 0)"/>
       <use xlink:href="#DejaVuSans-64" transform="translate(269.335938 0)"/>
       <use xlink:href="#DejaVuSans-65" transform="translate(332.8125 0)"/>
       <use xlink:href="#DejaVuSans-3a" transform="translate(394.335938 0)"/>
       <use xlink:href="#DejaVuSans-20" transform="translate(428.027344 0)"/>
       <use xlink:href="#DejaVuSans-44" transform="translate(459.814453 0)"/>
       <use xlink:href="#DejaVuSans-6f" transform="translate(536.816406 0)"/>
       <use xlink:href="#DejaVuSans-75" transform="translate(597.998047 0)"/>
       <use xlink:href="#DejaVuSans-62" transform="translate(661.376953 0)"/>
       <use xlink:href="#DejaVuSans-6c" transform="translate(724.853516 0)"/>
       <use xlink:href="#DejaVuSans-79" transform="translate(752.636719 0)"/>
       <use xlink:href="#DejaVuSans-20" transform="translate(811.816406 0)"/>
       <use xlink:href="#DejaVuSans-72" transform="translate(843.603516 0)"/>
       <use xlink:href="#DejaVuSans-6f" transform="translate(882.466797 0)"/>
       <use xlink:href="#DejaVuSans-62" transform="translate(943.648438 0)"/>
       <use xlink:href="#DejaVuSans-75" transform="translate(1007.125 0)"/>
       <use xlink:href="#DejaVuSans-73" transform="translate(1070.503906 0)"/>
       <use xlink:href="#DejaVuSans-74" transform="translate(1122.603516 0)"/>
      </g>
     </g>
    </g>
    <g id="ytick_8">
     <g id="line2d_20">
      <g>
       <use xlink:href="#mcee6f4aba5" x="165.852812" y="136.989834" style="fill: #1f2a44; stroke: #1f2a44; stroke-width: 0.8"/>
      </g>
     </g>
     <g id="text_15">
      <!-- Lalonde: IPW -->
      <g style="fill: #1f2a44" transform="translate(100.487812 140.409131) scale(0.09 -0.09)">
       <use xlink:href="#DejaVuSans-4c"/>
       <use xlink:href="#DejaVuSans-61" transform="translate(55.712891 0)"/>
       <use xlink:href="#DejaVuSans-6c" transform="translate(116.992188 0)"/>
       <use xlink:href="#DejaVuSans-6f" transform="translate(144.775391 0)"/>
       <use xlink:href="#DejaVuSans-6e" transform="translate(205.957031 0)"/>
       <use xlink:href="#DejaVuSans-64" transform="translate(269.335938 0)"/>
       <use xlink:href="#DejaVuSans-65" transform="translate(332.8125 0)"/>
       <use xlink:href="#DejaVuSans-3a" transform="translate(394.335938 0)"/>
       <use xlink:href="#DejaVuSans-20" transform="translate(428.027344 0)"/>
       <use xlink:href="#DejaVuSans-49" transform="translate(459.814453 0)"/>
       <use xlink:href="#DejaVuSans-50" transform="translate(489.306641 0)"/>
       <use xlink:href="#DejaVuSans-57" transform="translate(549.609375 0)"/>
      </g>
     </g>
    </g>
    <g id="ytick_9">
     <g id="line2d_21">
      <g>
       <use xlink:href="#mcee6f4aba5" x="165.852812" y="108.464596" style="fill: #1f2a44; stroke: #1f2a44; stroke-width: 0.8"/>
      </g>
     </g>
     <g id="text_16">
      <!-- Lalonde: Propensity matching -->
      <g style="fill: #1f2a44" transform="translate(24.955312 111.883893) scale(0.09 -0.09)">
       <use xlink:href="#DejaVuSans-4c"/>
       <use xlink:href="#DejaVuSans-61" transform="translate(55.712891 0)"/>
       <use xlink:href="#DejaVuSans-6c" transform="translate(116.992188 0)"/>
       <use xlink:href="#DejaVuSans-6f" transform="translate(144.775391 0)"/>
       <use xlink:href="#DejaVuSans-6e" transform="translate(205.957031 0)"/>
       <use xlink:href="#DejaVuSans-64" transform="translate(269.335938 0)"/>
       <use xlink:href="#DejaVuSans-65" transform="translate(332.8125 0)"/>
       <use xlink:href="#DejaVuSans-3a" transform="translate(394.335938 0)"/>
       <use xlink:href="#DejaVuSans-20" transform="translate(428.027344 0)"/>
       <use xlink:href="#DejaVuSans-50" transform="translate(459.814453 0)"/>
       <use xlink:href="#DejaVuSans-72" transform="translate(518.367188 0)"/>
       <use xlink:href="#DejaVuSans-6f" transform="translate(557.230469 0)"/>
       <use xlink:href="#DejaVuSans-70" transform="translate(618.412109 0)"/>
       <use xlink:href="#DejaVuSans-65" transform="translate(681.888672 0)"/>
       <use xlink:href="#DejaVuSans-6e" transform="translate(743.412109 0)"/>
       <use xlink:href="#DejaVuSans-73" transform="translate(806.791016 0)"/>
       <use xlink:href="#DejaVuSans-69" transform="translate(858.890625 0)"/>
       <use xlink:href="#DejaVuSans-74" transform="translate(886.673828 0)"/>
       <use xlink:href="#DejaVuSans-79" transform="translate(925.882812 0)"/>
       <use xlink:href="#DejaVuSans-20" transform="translate(985.0625 0)"/>
       <use xlink:href="#DejaVuSans-6d" transform="translate(1016.849609 0)"/>
       <use xlink:href="#DejaVuSans-61" transform="translate(1114.261719 0)"/>
       <use xlink:href="#DejaVuSans-74" transform="translate(1175.541016 0)"/>
       <use xlink:href="#DejaVuSans-63" transform="translate(1214.75 0)"/>
       <use xlink:href="#DejaVuSans-68" transform="translate(1269.730469 0)"/>
       <use xlink:href="#DejaVuSans-69" transform="translate(1333.109375 0)"/>
       <use xlink:href="#DejaVuSans-6e" transform="translate(1360.892578 0)"/>
       <use xlink:href="#DejaVuSans-67" transform="translate(1424.271484 0)"/>
      </g>
     </g>
    </g>
    <g id="ytick_10">
     <g id="line2d_22">
      <g>
       <use xlink:href="#mcee6f4aba5" x="165.852812" y="79.939358" style="fill: #1f2a44; stroke: #1f2a44; stroke-width: 0.8"/>
      </g>
     </g>
     <g id="text_17">
      <!-- Synthetic: Propensity matching -->
      <g style="fill: #1f2a44" transform="translate(17.956406 83.358654) scale(0.09 -0.09)">
       <use xlink:href="#DejaVuSans-53"/>
       <use xlink:href="#DejaVuSans-79" transform="translate(63.476562 0)"/>
       <use xlink:href="#DejaVuSans-6e" transform="translate(122.65625 0)"/>
       <use xlink:href="#DejaVuSans-74" transform="translate(186.035156 0)"/>
       <use xlink:href="#DejaVuSans-68" transform="translate(225.244141 0)"/>
       <use xlink:href="#DejaVuSans-65" transform="translate(288.623047 0)"/>
       <use xlink:href="#DejaVuSans-74" transform="translate(350.146484 0)"/>
       <use xlink:href="#DejaVuSans-69" transform="translate(389.355469 0)"/>
       <use xlink:href="#DejaVuSans-63" transform="translate(417.138672 0)"/>
       <use xlink:href="#DejaVuSans-3a" transform="translate(472.119141 0)"/>
       <use xlink:href="#DejaVuSans-20" transform="translate(505.810547 0)"/>
       <use xlink:href="#DejaVuSans-50" transform="translate(537.597656 0)"/>
       <use xlink:href="#DejaVuSans-72" transform="translate(596.150391 0)"/>
       <use xlink:href="#DejaVuSans-6f" transform="translate(635.013672 0)"/>
       <use xlink:href="#DejaVuSans-70" transform="translate(696.195312 0)"/>
       <use xlink:href="#DejaVuSans-65" transform="translate(759.671875 0)"/>
       <use xlink:href="#DejaVuSans-6e" transform="translate(821.195312 0)"/>
       <use xlink:href="#DejaVuSans-73" transform="translate(884.574219 0)"/>
       <use xlink:href="#DejaVuSans-69" transform="translate(936.673828 0)"/>
       <use xlink:href="#DejaVuSans-74" transform="translate(964.457031 0)"/>
       <use xlink:href="#DejaVuSans-79" transform="translate(1003.666016 0)"/>
       <use xlink:href="#DejaVuSans-20" transform="translate(1062.845703 0)"/>
       <use xlink:href="#DejaVuSans-6d" transform="translate(1094.632812 0)"/>
       <use xlink:href="#DejaVuSans-61" transform="translate(1192.044922 0)"/>
       <use xlink:href="#DejaVuSans-74" transform="translate(1253.324219 0)"/>
       <use xlink:href="#DejaVuSans-63" transform="translate(1292.533203 0)"/>
       <use xlink:href="#DejaVuSans-68" transform="translate(1347.513672 0)"/>
       <use xlink:href="#DejaVuSans-69" transform="translate(1410.892578 0)"/>
       <use xlink:href="#DejaVuSans-6e" transform="translate(1438.675781 0)"/>
       <use xlink:href="#DejaVuSans-67" transform="translate(1502.054688 0)"/>
      </g>
     </g>
    </g>
    <g id="ytick_11">
     <g id="line2d_23">
      <g>
       <use xlink:href="#mcee6f4aba5" x="165.852812" y="51.414119" style="fill: #1f2a44; stroke: #1f2a44; stroke-width: 0.8"/>
      </g>
     </g>
     <g id="text_18">
      <!-- Synthetic: IPW -->
      <g style="fill: #1f2a44" transform="translate(93.488906 54.833416) scale(0.09 -0.09)">
       <use xlink:href="#DejaVuSans-53"/>
       <use xlink:href="#DejaVuSans-79" transform="translate(63.476562 0)"/>
       <use xlink:href="#DejaVuSans-6e" transform="translate(122.65625 0)"/>
       <use xlink:href="#DejaVuSans-74" transform="translate(186.035156 0)"/>
       <use xlink:href="#DejaVuSans-68" transform="translate(225.244141 0)"/>
       <use xlink:href="#DejaVuSans-65" transform="translate(288.623047 0)"/>
       <use xlink:href="#DejaVuSans-74" transform="translate(350.146484 0)"/>
       <use xlink:href="#DejaVuSans-69" transform="translate(389.355469 0)"/>
       <use xlink:href="#DejaVuSans-63" transform="translate(417.138672 0)"/>
       <use xlink:href="#DejaVuSans-3a" transform="translate(472.119141 0)"/>
       <use xlink:href="#DejaVuSans-20" transform="translate(505.810547 0)"/>
       <use xlink:href="#DejaVuSans-49" transform="translate(537.597656 0)"/>
       <use xlink:href="#DejaVuSans-50" transform="translate(567.089844 0)"/>
       <use xlink:href="#DejaVuSans-57" transform="translate(627.392578 0)"/>
      </g>
     </g>
    </g>
    <g id="ytick_12">
     <g id="line2d_24">
      <g>
       <use xlink:href="#mcee6f4aba5" x="165.852812" y="22.888881" style="fill: #1f2a44; stroke: #1f2a44; stroke-width: 0.8"/>
      </g>
     </g>
     <g id="text_19">
      <!-- Synthetic: Doubly robust -->
      <g style="fill: #1f2a44" transform="translate(47.289375 26.308178) scale(0.09 -0.09)">
       <use xlink:href="#DejaVuSans-53"/>
       <use xlink:href="#DejaVuSans-79" transform="translate(63.476562 0)"/>
       <use xlink:href="#DejaVuSans-6e" transform="translate(122.65625 0)"/>
       <use xlink:href="#DejaVuSans-74" transform="translate(186.035156 0)"/>
       <use xlink:href="#DejaVuSans-68" transform="translate(225.244141 0)"/>
       <use xlink:href="#DejaVuSans-65" transform="translate(288.623047 0)"/>
       <use xlink:href="#DejaVuSans-74" transform="translate(350.146484 0)"/>
       <use xlink:href="#DejaVuSans-69" transform="translate(389.355469 0)"/>
       <use xlink:href="#DejaVuSans-63" transform="translate(417.138672 0)"/>
       <use xlink:href="#DejaVuSans-3a" transform="translate(472.119141 0)"/>
       <use xlink:href="#DejaVuSans-20" transform="translate(505.810547 0)"/>
       <use xlink:href="#DejaVuSans-44" transform="translate(537.597656 0)"/>
       <use xlink:href="#DejaVuSans-6f" transform="translate(614.599609 0)"/>
       <use xlink:href="#DejaVuSans-75" transform="translate(675.78125 0)"/>
       <use xlink:href="#DejaVuSans-62" transform="translate(739.160156 0)"/>
       <use xlink:href="#DejaVuSans-6c" transform="translate(802.636719 0)"/>
       <use xlink:href="#DejaVuSans-79" transform="translate(830.419922 0)"/>
       <use xlink:href="#DejaVuSans-20" transform="translate(889.599609 0)"/>
       <use xlink:href="#DejaVuSans-72" transform="translate(921.386719 0)"/>
       <use xlink:href="#DejaVuSans-6f" transform="translate(960.25 0)"/>
       <use xlink:href="#DejaVuSans-62" transform="translate(1021.431641 0)"/>
       <use xlink:href="#DejaVuSans-75" transform="translate(1084.908203 0)"/>
       <use xlink:href="#DejaVuSans-73" transform="translate(1148.287109 0)"/>
       <use xlink:href="#DejaVuSans-74" transform="translate(1200.386719 0)"/>
      </g>
     </g>
    </g>
   </g>
   <g id="LineCollection_1">
    <path d="M 412.409209 336.666502 
L 412.409209 336.666502 
" clip-path="url(#pb40bb65fc3)" style="fill: none; stroke: #d9dee7; stroke-width: 2.2"/>
   </g>
   <g id="LineCollection_2">
    <path d="M 260.017113 308.141264 
L 260.017113 308.141264 
" clip-path="url(#pb40bb65fc3)" style="fill: none; stroke: #d9dee7; stroke-width: 2.2"/>
   </g>
   <g id="LineCollection_3">
    <path d="M 412.688722 279.616025 
L 412.688722 279.616025 
" clip-path="url(#pb40bb65fc3)" style="fill: none; stroke: #d9dee7; stroke-width: 2.2"/>
   </g>
   <g id="LineCollection_4">
    <path d="M 187.680768 251.090787 
L 260.017113 251.090787 
" clip-path="url(#pb40bb65fc3)" style="fill: none; stroke: #d9dee7; stroke-width: 2.2"/>
   </g>
   <g id="LineCollection_5">
    <path d="M 177.606903 222.565549 
L 260.017113 222.565549 
" clip-path="url(#pb40bb65fc3)" style="fill: none; stroke: #d9dee7; stroke-width: 2.2"/>
   </g>
   <g id="LineCollection_6">
    <path d="M 177.606903 194.040311 
L 260.017113 194.040311 
" clip-path="url(#pb40bb65fc3)" style="fill: none; stroke: #d9dee7; stroke-width: 2.2"/>
   </g>
   <g id="LineCollection_7">
    <path d="M 227.70276 165.515072 
L 412.409209 165.515072 
" clip-path="url(#pb40bb65fc3)" style="fill: none; stroke: #d9dee7; stroke-width: 2.2"/>
   </g>
   <g id="LineCollection_8">
    <path d="M 226.725444 136.989834 
L 412.409209 136.989834 
" clip-path="url(#pb40bb65fc3)" style="fill: none; stroke: #d9dee7; stroke-width: 2.2"/>
   </g>
   <g id="LineCollection_9">
    <path d="M 205.988502 108.464596 
L 412.409209 108.464596 
" clip-path="url(#pb40bb65fc3)" style="fill: none; stroke: #d9dee7; stroke-width: 2.2"/>
   </g>
   <g id="LineCollection_10">
    <path d="M 199.894103 79.939358 
L 412.688722 79.939358 
" clip-path="url(#pb40bb65fc3)" style="fill: none; stroke: #d9dee7; stroke-width: 2.2"/>
   </g>
   <g id="LineCollection_11">
    <path d="M 179.318562 51.414119 
L 412.688722 51.414119 
" clip-path="url(#pb40bb65fc3)" style="fill: none; stroke: #d9dee7; stroke-width: 2.2"/>
   </g>
   <g id="LineCollection_12">
    <path d="M 179.318562 22.888881 
L 412.688722 22.888881 
" clip-path="url(#pb40bb65fc3)" style="fill: none; stroke: #d9dee7; stroke-width: 2.2"/>
   </g>
   <g id="line2d_25">
    <path d="M 229.170831 352.355383 
L 229.170831 7.2 
" clip-path="url(#pb40bb65fc3)" style="fill: none; stroke-dasharray: 1.2,1.98; stroke-dashoffset: 0; stroke: #b75d69; stroke-width: 1.2"/>
   </g>
   <g id="patch_3">
    <path d="M 165.852812 352.355383 
L 165.852812 7.2 
" style="fill: none; stroke: #d9dee7; stroke-width: 0.8; stroke-linejoin: miter; stroke-linecap: square"/>
   </g>
   <g id="patch_4">
    <path d="M 165.852812 352.355383 
L 424.442812 352.355383 
" style="fill: none; stroke: #d9dee7; stroke-width: 0.8; stroke-linejoin: miter; stroke-linecap: square"/>
   </g>
   <g id="PathCollection_1">
    <defs>
     <path id="m67b3b9128e" d="M 0 3.464102 
C 0.91869 3.464102 1.799877 3.099102 2.44949 2.44949 
C 3.099102 1.799877 3.464102 0.91869 3.464102 0 
C 3.464102 -0.91869 3.099102 -1.799877 2.44949 -2.44949 
C 1.799877 -3.099102 0.91869 -3.464102 0 -3.464102 
C -0.91869 -3.464102 -1.799877 -3.099102 -2.44949 -2.44949 
C -3.099102 -1.799877 -3.464102 -0.91869 -3.464102 0 
C -3.464102 0.91869 -3.099102 1.799877 -2.44949 2.44949 
C -1.799877 3.099102 -0.91869 3.464102 0 3.464102 
z
" style="stroke: #c58b39"/>
    </defs>
    <g clip-path="url(#pb40bb65fc3)">
     <use xlink:href="#m67b3b9128e" x="412.409209" y="336.666502" style="fill: #c58b39; stroke: #c58b39"/>
     <use xlink:href="#m67b3b9128e" x="260.017113" y="308.141264" style="fill: #c58b39; stroke: #c58b39"/>
     <use xlink:href="#m67b3b9128e" x="412.688722" y="279.616025" style="fill: #c58b39; stroke: #c58b39"/>
     <use xlink:href="#m67b3b9128e" x="260.017113" y="251.090787" style="fill: #c58b39; stroke: #c58b39"/>
     <use xlink:href="#m67b3b9128e" x="260.017113" y="222.565549" style="fill: #c58b39; stroke: #c58b39"/>
     <use xlink:href="#m67b3b9128e" x="260.017113" y="194.040311" style="fill: #c58b39; stroke: #c58b39"/>
     <use xlink:href="#m67b3b9128e" x="412.409209" y="165.515072" style="fill: #c58b39; stroke: #c58b39"/>
     <use xlink:href="#m67b3b9128e" x="412.409209" y="136.989834" style="fill: #c58b39; stroke: #c58b39"/>
     <use xlink:href="#m67b3b9128e" x="412.409209" y="108.464596" style="fill: #c58b39; stroke: #c58b39"/>
     <use xlink:href="#m67b3b9128e" x="412.688722" y="79.939358" style="fill: #c58b39; stroke: #c58b39"/>
     <use xlink:href="#m67b3b9128e" x="412.688722" y="51.414119" style="fill: #c58b39; stroke: #c58b39"/>
     <use xlink:href="#m67b3b9128e" x="412.688722" y="22.888881" style="fill: #c58b39; stroke: #c58b39"/>
    </g>
   </g>
   <g id="PathCollection_2">
    <defs>
     <path id="m48b74426b5" d="M 0 3.464102 
C 0.91869 3.464102 1.799877 3.099102 2.44949 2.44949 
C 3.099102 1.799877 3.464102 0.91869 3.464102 0 
C 3.464102 -0.91869 3.099102 -1.799877 2.44949 -2.44949 
C 1.799877 -3.099102 0.91869 -3.464102 0 -3.464102 
C -0.91869 -3.464102 -1.799877 -3.099102 -2.44949 -2.44949 
C -3.099102 -1.799877 -3.464102 -0.91869 -3.464102 0 
C -3.464102 0.91869 -3.099102 1.799877 -2.44949 2.44949 
C -1.799877 3.099102 -0.91869 3.464102 0 3.464102 
z
" style="stroke: #4e9f8a"/>
    </defs>
    <g clip-path="url(#pb40bb65fc3)">
     <use xlink:href="#m48b74426b5" x="412.409209" y="336.666502" style="fill: #4e9f8a; stroke: #4e9f8a"/>
     <use xlink:href="#m48b74426b5" x="260.017113" y="308.141264" style="fill: #4e9f8a; stroke: #4e9f8a"/>
     <use xlink:href="#m48b74426b5" x="412.688722" y="279.616025" style="fill: #4e9f8a; stroke: #4e9f8a"/>
     <use xlink:href="#m48b74426b5" x="187.680768" y="251.090787" style="fill: #4e9f8a; stroke: #4e9f8a"/>
     <use xlink:href="#m48b74426b5" x="177.606903" y="222.565549" style="fill: #4e9f8a; stroke: #4e9f8a"/>
     <use xlink:href="#m48b74426b5" x="177.606903" y="194.040311" style="fill: #4e9f8a; stroke: #4e9f8a"/>
     <use xlink:href="#m48b74426b5" x="227.70276" y="165.515072" style="fill: #4e9f8a; stroke: #4e9f8a"/>
     <use xlink:href="#m48b74426b5" x="226.725444" y="136.989834" style="fill: #4e9f8a; stroke: #4e9f8a"/>
     <use xlink:href="#m48b74426b5" x="205.988502" y="108.464596" style="fill: #4e9f8a; stroke: #4e9f8a"/>
     <use xlink:href="#m48b74426b5" x="199.894103" y="79.939358" style="fill: #4e9f8a; stroke: #4e9f8a"/>
     <use xlink:href="#m48b74426b5" x="179.318562" y="51.414119" style="fill: #4e9f8a; stroke: #4e9f8a"/>
     <use xlink:href="#m48b74426b5" x="179.318562" y="22.888881" style="fill: #4e9f8a; stroke: #4e9f8a"/>
    </g>
   </g>
   <g id="legend_1">
    <g id="PathCollection_3">
     <g>
      <use xlink:href="#m67b3b9128e" x="178.74625" y="393.941251" style="fill: #c58b39; stroke: #c58b39"/>
     </g>
    </g>
    <g id="text_20">
     <!-- Before adjustment -->
     <g transform="translate(196.74625 396.566251) scale(0.1 -0.1)">
      <defs>
       <path id="DejaVuSans-42" d="M 1259 2228 
L 1259 519 
L 2272 519 
Q 2781 519 3026 730 
Q 3272 941 3272 1375 
Q 3272 1813 3026 2020 
Q 2781 2228 2272 2228 
L 1259 2228 
z
M 1259 4147 
L 1259 2741 
L 2194 2741 
Q 2656 2741 2882 2914 
Q 3109 3088 3109 3444 
Q 3109 3797 2882 3972 
Q 2656 4147 2194 4147 
L 1259 4147 
z
M 628 4666 
L 2241 4666 
Q 2963 4666 3353 4366 
Q 3744 4066 3744 3513 
Q 3744 3084 3544 2831 
Q 3344 2578 2956 2516 
Q 3422 2416 3680 2098 
Q 3938 1781 3938 1306 
Q 3938 681 3513 340 
Q 3088 0 2303 0 
L 628 0 
L 628 4666 
z
" transform="scale(0.015625)"/>
      </defs>
      <use xlink:href="#DejaVuSans-42"/>
      <use xlink:href="#DejaVuSans-65" transform="translate(68.603516 0)"/>
      <use xlink:href="#DejaVuSans-66" transform="translate(130.126953 0)"/>
      <use xlink:href="#DejaVuSans-6f" transform="translate(165.332031 0)"/>
      <use xlink:href="#DejaVuSans-72" transform="translate(226.513672 0)"/>
      <use xlink:href="#DejaVuSans-65" transform="translate(265.376953 0)"/>
      <use xlink:href="#DejaVuSans-20" transform="translate(326.900391 0)"/>
      <use xlink:href="#DejaVuSans-61" transform="translate(358.6875 0)"/>
      <use xlink:href="#DejaVuSans-64" transform="translate(419.966797 0)"/>
      <use xlink:href="#DejaVuSans-6a" transform="translate(483.443359 0)"/>
      <use xlink:href="#DejaVuSans-75" transform="translate(511.226562 0)"/>
      <use xlink:href="#DejaVuSans-73" transform="translate(574.605469 0)"/>
      <use xlink:href="#DejaVuSans-74" transform="translate(626.705078 0)"/>
      <use xlink:href="#DejaVuSans-6d" transform="translate(665.914062 0)"/>
      <use xlink:href="#DejaVuSans-65" transform="translate(763.326172 0)"/>
      <use xlink:href="#DejaVuSans-6e" transform="translate(824.849609 0)"/>
      <use xlink:href="#DejaVuSans-74" transform="translate(888.228516 0)"/>
     </g>
    </g>
    <g id="PathCollection_4">
     <g>
      <use xlink:href="#m48b74426b5" x="319.49" y="393.941251" style="fill: #4e9f8a; stroke: #4e9f8a"/>
     </g>
    </g>
    <g id="text_21">
     <!-- After adjustment -->
     <g transform="translate(337.49 396.566251) scale(0.1 -0.1)">
      <defs>
       <path id="DejaVuSans-41" d="M 2188 4044 
L 1331 1722 
L 3047 1722 
L 2188 4044 
z
M 1831 4666 
L 2547 4666 
L 4325 0 
L 3669 0 
L 3244 1197 
L 1141 1197 
L 716 0 
L 50 0 
L 1831 4666 
z
" transform="scale(0.015625)"/>
      </defs>
      <use xlink:href="#DejaVuSans-41"/>
      <use xlink:href="#DejaVuSans-66" transform="translate(64.783203 0)"/>
      <use xlink:href="#DejaVuSans-74" transform="translate(98.238281 0)"/>
      <use xlink:href="#DejaVuSans-65" transform="translate(137.447266 0)"/>
      <use xlink:href="#DejaVuSans-72" transform="translate(198.970703 0)"/>
      <use xlink:href="#DejaVuSans-20" transform="translate(240.083984 0)"/>
      <use xlink:href="#DejaVuSans-61" transform="translate(271.871094 0)"/>
      <use xlink:href="#DejaVuSans-64" transform="translate(333.150391 0)"/>
      <use xlink:href="#DejaVuSans-6a" transform="translate(396.626953 0)"/>
      <use xlink:href="#DejaVuSans-75" transform="translate(424.410156 0)"/>
      <use xlink:href="#DejaVuSans-73" transform="translate(487.789062 0)"/>
      <use xlink:href="#DejaVuSans-74" transform="translate(539.888672 0)"/>
      <use xlink:href="#DejaVuSans-6d" transform="translate(579.097656 0)"/>
      <use xlink:href="#DejaVuSans-65" transform="translate(676.509766 0)"/>
      <use xlink:href="#DejaVuSans-6e" transform="translate(738.033203 0)"/>
      <use xlink:href="#DejaVuSans-74" transform="translate(801.412109 0)"/>
     </g>
    </g>
   </g>
  </g>
 </g>
 <defs>
  <clipPath id="pb40bb65fc3">
   <rect x="165.852812" y="7.2" width="258.59" height="345.155383"/>
  </clipPath>
 </defs>
</svg>
