<?xml version="1.0" encoding="utf-8" standalone="no"?>
<!DOCTYPE svg PUBLIC "-//W3C//DTD SVG 1.1//EN"
  "http://www.w3.org/Graphics/SVG/1.1/DTD/svg11.dtd">
<svg xmlns:xlink="http://www.w3.org/1999/xlink" width="597.400469pt" height="343.822656pt" viewBox="0 0 597.400469 343.822656" xmlns="http://www.w3.org/2000/svg" version="1.1">
 <metadata>
  <rdf:RDF xmlns:dc="http://purl.org/dc/elements/1.1/" xmlns:cc="http://creativecommons.org/ns#" xmlns:rdf="http://www.w3.org/1999/02/22-rdf-syntax-ns#">
   <cc:Work>
    <dc:type rdf:resource="http://purl.org/dc/dcmitype/StillImage"/>
    <dc:date>2026-03-25T20:18:08.409322</dc:date>
    <dc:format>image/svg+xml</dc:format>
    <dc:creator>
     <cc:Agent>
      <dc:title>Matplotlib v3.10.8, https://matplotlib.org/</dc:title>
     </cc:Agent>
    </dc:creator>
   </cc:Work>
  </rdf:RDF>
 </metadata>
 <defs>
  <style type="text/css">*{stroke-linejoin: round; stroke-linecap: butt}</style>
 </defs>
 <g id="figure_1">
  <g id="patch_1">
   <path d="M 0 343.822656 
L 597.400469 343.822656 
L 597.400469 0 
L 0 0 
z
" style="fill: #ffffff"/>
  </g>
  <g id="axes_1">
   <g id="patch_2">
    <path d="M 33.120469 307.718125 
L 590.200469 307.718125 
L 590.200469 26.318125 
L 33.120469 26.318125 
z
" style="fill: #ffffff"/>
   </g>
   <g id="matplotlib.axis_1">
    <g id="xtick_1">
     <g id="line2d_1">
      <path d="M 52.328766 307.718125 
L 52.328766 26.318125 
" clip-path="url(#p32811930c0)" style="fill: none; stroke: #d9dee7; stroke-opacity: 0.85; stroke-width: 0.8; stroke-linecap: square"/>
     </g>
     <g id="line2d_2">
      <defs>
       <path id="m703afe0dbd" d="M 0 0 
L 0 3.5 
" style="stroke: #1f2a44; stroke-width: 0.8"/>
      </defs>
      <g>
       <use xlink:href="#m703afe0dbd" x="52.328766" y="307.718125" style="fill: #1f2a44; stroke: #1f2a44; stroke-width: 0.8"/>
      </g>
     </g>
     <g id="text_1">
      <!-- 0.0 -->
      <g style="fill: #1f2a44" transform="translate(45.172359 321.556719) scale(0.09 -0.09)">
       <defs>
        <path id="DejaVuSans-30" d="M 2034 4250 
Q 1547 4250 1301 3770 
Q 1056 3291 1056 2328 
Q 1056 1369 1301 889 
Q 1547 409 2034 409 
Q 2525 409 2770 889 
Q 3016 1369 3016 2328 
Q 3016 3291 2770 3770 
Q 2525 4250 2034 4250 
z
M 2034 4750 
Q 2819 4750 3233 4129 
Q 3647 3509 3647 2328 
Q 3647 1150 3233 529 
Q 2819 -91 2034 -91 
Q 1250 -91 836 529 
Q 422 1150 422 2328 
Q 422 3509 836 4129 
Q 1250 4750 2034 4750 
z
" transform="scale(0.015625)"/>
        <path id="DejaVuSans-2e" d="M 684 794 
L 1344 794 
L 1344 0 
L 684 0 
L 684 794 
z
" transform="scale(0.015625)"/>
       </defs>
       <use xlink:href="#DejaVuSans-30"/>
       <use xlink:href="#DejaVuSans-2e" transform="translate(63.623047 0)"/>
       <use xlink:href="#DejaVuSans-30" transform="translate(95.410156 0)"/>
      </g>
     </g>
    </g>
    <g id="xtick_2">
     <g id="line2d_3">
      <path d="M 173.763987 307.718125 
L 173.763987 26.318125 
" clip-path="url(#p32811930c0)" style="fill: none; stroke: #d9dee7; stroke-opacity: 0.85; stroke-width: 0.8; stroke-linecap: square"/>
     </g>
     <g id="line2d_4">
      <g>
       <use xlink:href="#m703afe0dbd" x="173.763987" y="307.718125" style="fill: #1f2a44; stroke: #1f2a44; stroke-width: 0.8"/>
      </g>
     </g>
     <g id="text_2">
      <!-- 0.2 -->
      <g style="fill: #1f2a44" transform="translate(166.607581 321.556719) scale(0.09 -0.09)">
       <defs>
        <path id="DejaVuSans-32" d="M 1228 531 
L 3431 531 
L 3431 0 
L 469 0 
L 469 531 
Q 828 903 1448 1529 
Q 2069 2156 2228 2338 
Q 2531 2678 2651 2914 
Q 2772 3150 2772 3378 
Q 2772 3750 2511 3984 
Q 2250 4219 1831 4219 
Q 1534 4219 1204 4116 
Q 875 4013 500 3803 
L 500 4441 
Q 881 4594 1212 4672 
Q 1544 4750 1819 4750 
Q 2544 4750 2975 4387 
Q 3406 4025 3406 3419 
Q 3406 3131 3298 2873 
Q 3191 2616 2906 2266 
Q 2828 2175 2409 1742 
Q 1991 1309 1228 531 
z
" transform="scale(0.015625)"/>
       </defs>
       <use xlink:href="#DejaVuSans-30"/>
       <use xlink:href="#DejaVuSans-2e" transform="translate(63.623047 0)"/>
       <use xlink:href="#DejaVuSans-32" transform="translate(95.410156 0)"/>
      </g>
     </g>
    </g>
    <g id="xtick_3">
     <g id="line2d_5">
      <path d="M 295.199208 307.718125 
L 295.199208 26.318125 
" clip-path="url(#p32811930c0)" style="fill: none; stroke: #d9dee7; stroke-opacity: 0.85; stroke-width: 0.8; stroke-linecap: square"/>
     </g>
     <g id="line2d_6">
      <g>
       <use xlink:href="#m703afe0dbd" x="295.199208" y="307.718125" style="fill: #1f2a44; stroke: #1f2a44; stroke-width: 0.8"/>
      </g>
     </g>
     <g id="text_3">
      <!-- 0.4 -->
      <g style="fill: #1f2a44" transform="translate(288.042802 321.556719) scale(0.09 -0.09)">
       <defs>
        <path id="DejaVuSans-34" d="M 2419 4116 
L 825 1625 
L 2419 1625 
L 2419 4116 
z
M 2253 4666 
L 3047 4666 
L 3047 1625 
L 3713 1625 
L 3713 1100 
L 3047 1100 
L 3047 0 
L 2419 0 
L 2419 1100 
L 313 1100 
L 313 1709 
L 2253 4666 
z
" transform="scale(0.015625)"/>
       </defs>
       <use xlink:href="#DejaVuSans-30"/>
       <use xlink:href="#DejaVuSans-2e" transform="translate(63.623047 0)"/>
       <use xlink:href="#DejaVuSans-34" transform="translate(95.410156 0)"/>
      </g>
     </g>
    </g>
    <g id="xtick_4">
     <g id="line2d_7">
      <path d="M 416.634429 307.718125 
L 416.634429 26.318125 
" clip-path="url(#p32811930c0)" style="fill: none; stroke: #d9dee7; stroke-opacity: 0.85; stroke-width: 0.8; stroke-linecap: square"/>
     </g>
     <g id="line2d_8">
      <g>
       <use xlink:href="#m703afe0dbd" x="416.634429" y="307.718125" style="fill: #1f2a44; stroke: #1f2a44; stroke-width: 0.8"/>
      </g>
     </g>
     <g id="text_4">
      <!-- 0.6 -->
      <g style="fill: #1f2a44" transform="translate(409.478023 321.556719) scale(0.09 -0.09)">
       <defs>
        <path id="DejaVuSans-36" d="M 2113 2584 
Q 1688 2584 1439 2293 
Q 1191 2003 1191 1497 
Q 1191 994 1439 701 
Q 1688 409 2113 409 
Q 2538 409 2786 701 
Q 3034 994 3034 1497 
Q 3034 2003 2786 2293 
Q 2538 2584 2113 2584 
z
M 3366 4563 
L 3366 3988 
Q 3128 4100 2886 4159 
Q 2644 4219 2406 4219 
Q 1781 4219 1451 3797 
Q 1122 3375 1075 2522 
Q 1259 2794 1537 2939 
Q 1816 3084 2150 3084 
Q 2853 3084 3261 2657 
Q 3669 2231 3669 1497 
Q 3669 778 3244 343 
Q 2819 -91 2113 -91 
Q 1303 -91 875 529 
Q 447 1150 447 2328 
Q 447 3434 972 4092 
Q 1497 4750 2381 4750 
Q 2619 4750 2861 4703 
Q 3103 4656 3366 4563 
z
" transform="scale(0.015625)"/>
       </defs>
       <use xlink:href="#DejaVuSans-30"/>
       <use xlink:href="#DejaVuSans-2e" transform="translate(63.623047 0)"/>
       <use xlink:href="#DejaVuSans-36" transform="translate(95.410156 0)"/>
      </g>
     </g>
    </g>
    <g id="xtick_5">
     <g id="line2d_9">
      <path d="M 538.069651 307.718125 
L 538.069651 26.318125 
" clip-path="url(#p32811930c0)" style="fill: none; stroke: #d9dee7; stroke-opacity: 0.85; stroke-width: 0.8; stroke-linecap: square"/>
     </g>
     <g id="line2d_10">
      <g>
       <use xlink:href="#m703afe0dbd" x="538.069651" y="307.718125" style="fill: #1f2a44; stroke: #1f2a44; stroke-width: 0.8"/>
      </g>
     </g>
     <g id="text_5">
      <!-- 0.8 -->
      <g style="fill: #1f2a44" transform="translate(530.913244 321.556719) scale(0.09 -0.09)">
       <defs>
        <path id="DejaVuSans-38" d="M 2034 2216 
Q 1584 2216 1326 1975 
Q 1069 1734 1069 1313 
Q 1069 891 1326 650 
Q 1584 409 2034 409 
Q 2484 409 2743 651 
Q 3003 894 3003 1313 
Q 3003 1734 2745 1975 
Q 2488 2216 2034 2216 
z
M 1403 2484 
Q 997 2584 770 2862 
Q 544 3141 544 3541 
Q 544 4100 942 4425 
Q 1341 4750 2034 4750 
Q 2731 4750 3128 4425 
Q 3525 4100 3525 3541 
Q 3525 3141 3298 2862 
Q 3072 2584 2669 2484 
Q 3125 2378 3379 2068 
Q 3634 1759 3634 1313 
Q 3634 634 3220 271 
Q 2806 -91 2034 -91 
Q 1263 -91 848 271 
Q 434 634 434 1313 
Q 434 1759 690 2068 
Q 947 2378 1403 2484 
z
M 1172 3481 
Q 1172 3119 1398 2916 
Q 1625 2713 2034 2713 
Q 2441 2713 2670 2916 
Q 2900 3119 2900 3481 
Q 2900 3844 2670 4047 
Q 2441 4250 2034 4250 
Q 1625 4250 1398 4047 
Q 1172 3844 1172 3481 
z
" transform="scale(0.015625)"/>
       </defs>
       <use xlink:href="#DejaVuSans-30"/>
       <use xlink:href="#DejaVuSans-2e" transform="translate(63.623047 0)"/>
       <use xlink:href="#DejaVuSans-38" transform="translate(95.410156 0)"/>
      </g>
     </g>
    </g>
    <g id="text_6">
     <!-- Propensity score -->
     <g style="fill: #1f2a44" transform="translate(272.440313 334.646953) scale(0.095 -0.095)">
      <defs>
       <path id="DejaVuSans-50" d="M 1259 4147 
L 1259 2394 
L 2053 2394 
Q 2494 2394 2734 2622 
Q 2975 2850 2975 3272 
Q 2975 3691 2734 3919 
Q 2494 4147 2053 4147 
L 1259 4147 
z
M 628 4666 
L 2053 4666 
Q 2838 4666 3239 4311 
Q 3641 3956 3641 3272 
Q 3641 2581 3239 2228 
Q 2838 1875 2053 1875 
L 1259 1875 
L 1259 0 
L 628 0 
L 628 4666 
z
" transform="scale(0.015625)"/>
       <path id="DejaVuSans-72" d="M 2631 2963 
Q 2534 3019 2420 3045 
Q 2306 3072 2169 3072 
Q 1681 3072 1420 2755 
Q 1159 2438 1159 1844 
L 1159 0 
L 581 0 
L 581 3500 
L 1159 3500 
L 1159 2956 
Q 1341 3275 1631 3429 
Q 1922 3584 2338 3584 
Q 2397 3584 2469 3576 
Q 2541 3569 2628 3553 
L 2631 2963 
z
" transform="scale(0.015625)"/>
       <path id="DejaVuSans-6f" d="M 1959 3097 
Q 1497 3097 1228 2736 
Q 959 2375 959 1747 
Q 959 1119 1226 758 
Q 1494 397 1959 397 
Q 2419 397 2687 759 
Q 2956 1122 2956 1747 
Q 2956 2369 2687 2733 
Q 2419 3097 1959 3097 
z
M 1959 3584 
Q 2709 3584 3137 3096 
Q 3566 2609 3566 1747 
Q 3566 888 3137 398 
Q 2709 -91 1959 -91 
Q 1206 -91 779 398 
Q 353 888 353 1747 
Q 353 2609 779 3096 
Q 1206 3584 1959 3584 
z
" transform="scale(0.015625)"/>
       <path id="DejaVuSans-70" d="M 1159 525 
L 1159 -1331 
L 581 -1331 
L 581 3500 
L 1159 3500 
L 1159 2969 
Q 1341 3281 1617 3432 
Q 1894 3584 2278 3584 
Q 2916 3584 3314 3078 
Q 3713 2572 3713 1747 
Q 3713 922 3314 415 
Q 2916 -91 2278 -91 
Q 1894 -91 1617 61 
Q 1341 213 1159 525 
z
M 3116 1747 
Q 3116 2381 2855 2742 
Q 2594 3103 2138 3103 
Q 1681 3103 1420 2742 
Q 1159 2381 1159 1747 
Q 1159 1113 1420 752 
Q 1681 391 2138 391 
Q 2594 391 2855 752 
Q 3116 1113 3116 1747 
z
" transform="scale(0.015625)"/>
       <path id="DejaVuSans-65" d="M 3597 1894 
L 3597 1613 
L 953 1613 
Q 991 1019 1311 708 
Q 1631 397 2203 397 
Q 2534 397 2845 478 
Q 3156 559 3463 722 
L 3463 178 
Q 3153 47 2828 -22 
Q 2503 -91 2169 -91 
Q 1331 -91 842 396 
Q 353 884 353 1716 
Q 353 2575 817 3079 
Q 1281 3584 2069 3584 
Q 2775 3584 3186 3129 
Q 3597 2675 3597 1894 
z
M 3022 2063 
Q 3016 2534 2758 2815 
Q 2500 3097 2075 3097 
Q 1594 3097 1305 2825 
Q 1016 2553 972 2059 
L 3022 2063 
z
" transform="scale(0.015625)"/>
       <path id="DejaVuSans-6e" d="M 3513 2113 
L 3513 0 
L 2938 0 
L 2938 2094 
Q 2938 2591 2744 2837 
Q 2550 3084 2163 3084 
Q 1697 3084 1428 2787 
Q 1159 2491 1159 1978 
L 1159 0 
L 581 0 
L 581 3500 
L 1159 3500 
L 1159 2956 
Q 1366 3272 1645 3428 
Q 1925 3584 2291 3584 
Q 2894 3584 3203 3211 
Q 3513 2838 3513 2113 
z
" transform="scale(0.015625)"/>
       <path id="DejaVuSans-73" d="M 2834 3397 
L 2834 2853 
Q 2591 2978 2328 3040 
Q 2066 3103 1784 3103 
Q 1356 3103 1142 2972 
Q 928 2841 928 2578 
Q 928 2378 1081 2264 
Q 1234 2150 1697 2047 
L 1894 2003 
Q 2506 1872 2764 1633 
Q 3022 1394 3022 966 
Q 3022 478 2636 193 
Q 2250 -91 1575 -91 
Q 1294 -91 989 -36 
Q 684 19 347 128 
L 347 722 
Q 666 556 975 473 
Q 1284 391 1588 391 
Q 1994 391 2212 530 
Q 2431 669 2431 922 
Q 2431 1156 2273 1281 
Q 2116 1406 1581 1522 
L 1381 1569 
Q 847 1681 609 1914 
Q 372 2147 372 2553 
Q 372 3047 722 3315 
Q 1072 3584 1716 3584 
Q 2034 3584 2315 3537 
Q 2597 3491 2834 3397 
z
" transform="scale(0.015625)"/>
       <path id="DejaVuSans-69" d="M 603 3500 
L 1178 3500 
L 1178 0 
L 603 0 
L 603 3500 
z
M 603 4863 
L 1178 4863 
L 1178 4134 
L 603 4134 
L 603 4863 
z
" transform="scale(0.015625)"/>
       <path id="DejaVuSans-74" d="M 1172 4494 
L 1172 3500 
L 2356 3500 
L 2356 3053 
L 1172 3053 
L 1172 1153 
Q 1172 725 1289 603 
Q 1406 481 1766 481 
L 2356 481 
L 2356 0 
L 1766 0 
Q 1100 0 847 248 
Q 594 497 594 1153 
L 594 3053 
L 172 3053 
L 172 3500 
L 594 3500 
L 594 4494 
L 1172 4494 
z
" transform="scale(0.015625)"/>
       <path id="DejaVuSans-79" d="M 2059 -325 
Q 1816 -950 1584 -1140 
Q 1353 -1331 966 -1331 
L 506 -1331 
L 506 -850 
L 844 -850 
Q 1081 -850 1212 -737 
Q 1344 -625 1503 -206 
L 1606 56 
L 191 3500 
L 800 3500 
L 1894 763 
L 2988 3500 
L 3597 3500 
L 2059 -325 
z
" transform="scale(0.015625)"/>
       <path id="DejaVuSans-20" transform="scale(0.015625)"/>
       <path id="DejaVuSans-63" d="M 3122 3366 
L 3122 2828 
Q 2878 2963 2633 3030 
Q 2388 3097 2138 3097 
Q 1578 3097 1268 2742 
Q 959 2388 959 1747 
Q 959 1106 1268 751 
Q 1578 397 2138 397 
Q 2388 397 2633 464 
Q 2878 531 3122 666 
L 3122 134 
Q 2881 22 2623 -34 
Q 2366 -91 2075 -91 
Q 1284 -91 818 406 
Q 353 903 353 1747 
Q 353 2603 823 3093 
Q 1294 3584 2113 3584 
Q 2378 3584 2631 3529 
Q 2884 3475 3122 3366 
z
" transform="scale(0.015625)"/>
      </defs>
      <use xlink:href="#DejaVuSans-50"/>
      <use xlink:href="#DejaVuSans-72" transform="translate(58.552734 0)"/>
      <use xlink:href="#DejaVuSans-6f" transform="translate(97.416016 0)"/>
      <use xlink:href="#DejaVuSans-70" transform="translate(158.597656 0)"/>
      <use xlink:href="#DejaVuSans-65" transform="translate(222.074219 0)"/>
      <use xlink:href="#DejaVuSans-6e" transform="translate(283.597656 0)"/>
      <use xlink:href="#DejaVuSans-73" transform="translate(346.976562 0)"/>
      <use xlink:href="#DejaVuSans-69" transform="translate(399.076172 0)"/>
      <use xlink:href="#DejaVuSans-74" transform="translate(426.859375 0)"/>
      <use xlink:href="#DejaVuSans-79" transform="translate(466.068359 0)"/>
      <use xlink:href="#DejaVuSans-20" transform="translate(525.248047 0)"/>
      <use xlink:href="#DejaVuSans-73" transform="translate(557.035156 0)"/>
      <use xlink:href="#DejaVuSans-63" transform="translate(609.134766 0)"/>
      <use xlink:href="#DejaVuSans-6f" transform="translate(664.115234 0)"/>
      <use xlink:href="#DejaVuSans-72" transform="translate(725.296875 0)"/>
      <use xlink:href="#DejaVuSans-65" transform="translate(764.160156 0)"/>
     </g>
    </g>
   </g>
   <g id="matplotlib.axis_2">
    <g id="ytick_1">
     <g id="line2d_11">
      <defs>
       <path id="m7611cf6c68" d="M 0 0 
L -3.5 0 
" style="stroke: #1f2a44; stroke-width: 0.8"/>
      </defs>
      <g>
       <use xlink:href="#m7611cf6c68" x="33.120469" y="307.718125" style="fill: #1f2a44; stroke: #1f2a44; stroke-width: 0.8"/>
      </g>
     </g>
     <g id="text_7">
      <!-- 0 -->
      <g style="fill: #1f2a44" transform="translate(20.394219 311.137422) scale(0.09 -0.09)">
       <use xlink:href="#DejaVuSans-30"/>
      </g>
     </g>
    </g>
    <g id="ytick_2">
     <g id="line2d_12">
      <g>
       <use xlink:href="#m7611cf6c68" x="33.120469" y="274.211347" style="fill: #1f2a44; stroke: #1f2a44; stroke-width: 0.8"/>
      </g>
     </g>
     <g id="text_8">
      <!-- 1 -->
      <g style="fill: #1f2a44" transform="translate(20.394219 277.630644) scale(0.09 -0.09)">
       <defs>
        <path id="DejaVuSans-31" d="M 794 531 
L 1825 531 
L 1825 4091 
L 703 3866 
L 703 4441 
L 1819 4666 
L 2450 4666 
L 2450 531 
L 3481 531 
L 3481 0 
L 794 0 
L 794 531 
z
" transform="scale(0.015625)"/>
       </defs>
       <use xlink:href="#DejaVuSans-31"/>
      </g>
     </g>
    </g>
    <g id="ytick_3">
     <g id="line2d_13">
      <g>
       <use xlink:href="#m7611cf6c68" x="33.120469" y="240.704569" style="fill: #1f2a44; stroke: #1f2a44; stroke-width: 0.8"/>
      </g>
     </g>
     <g id="text_9">
      <!-- 2 -->
      <g style="fill: #1f2a44" transform="translate(20.394219 244.123866) scale(0.09 -0.09)">
       <use xlink:href="#DejaVuSans-32"/>
      </g>
     </g>
    </g>
    <g id="ytick_4">
     <g id="line2d_14">
      <g>
       <use xlink:href="#m7611cf6c68" x="33.120469" y="207.197792" style="fill: #1f2a44; stroke: #1f2a44; stroke-width: 0.8"/>
      </g>
     </g>
     <g id="text_10">
      <!-- 3 -->
      <g style="fill: #1f2a44" transform="translate(20.394219 210.617088) scale(0.09 -0.09)">
       <defs>
        <path id="DejaVuSans-33" d="M 2597 2516 
Q 3050 2419 3304 2112 
Q 3559 1806 3559 1356 
Q 3559 666 3084 287 
Q 2609 -91 1734 -91 
Q 1441 -91 1130 -33 
Q 819 25 488 141 
L 488 750 
Q 750 597 1062 519 
Q 1375 441 1716 441 
Q 2309 441 2620 675 
Q 2931 909 2931 1356 
Q 2931 1769 2642 2001 
Q 2353 2234 1838 2234 
L 1294 2234 
L 1294 2753 
L 1863 2753 
Q 2328 2753 2575 2939 
Q 2822 3125 2822 3475 
Q 2822 3834 2567 4026 
Q 2313 4219 1838 4219 
Q 1578 4219 1281 4162 
Q 984 4106 628 3988 
L 628 4550 
Q 988 4650 1302 4700 
Q 1616 4750 1894 4750 
Q 2613 4750 3031 4423 
Q 3450 4097 3450 3541 
Q 3450 3153 3228 2886 
Q 3006 2619 2597 2516 
z
" transform="scale(0.015625)"/>
       </defs>
       <use xlink:href="#DejaVuSans-33"/>
      </g>
     </g>
    </g>
    <g id="ytick_5">
     <g id="line2d_15">
      <g>
       <use xlink:href="#m7611cf6c68" x="33.120469" y="173.691014" style="fill: #1f2a44; stroke: #1f2a44; stroke-width: 0.8"/>
      </g>
     </g>
     <g id="text_11">
      <!-- 4 -->
      <g style="fill: #1f2a44" transform="translate(20.394219 177.110311) scale(0.09 -0.09)">
       <use xlink:href="#DejaVuSans-34"/>
      </g>
     </g>
    </g>
    <g id="ytick_6">
     <g id="line2d_16">
      <g>
       <use xlink:href="#m7611cf6c68" x="33.120469" y="140.184236" style="fill: #1f2a44; stroke: #1f2a44; stroke-width: 0.8"/>
      </g>
     </g>
     <g id="text_12">
      <!-- 5 -->
      <g style="fill: #1f2a44" transform="translate(20.394219 143.603533) scale(0.09 -0.09)">
       <defs>
        <path id="DejaVuSans-35" d="M 691 4666 
L 3169 4666 
L 3169 4134 
L 1269 4134 
L 1269 2991 
Q 1406 3038 1543 3061 
Q 1681 3084 1819 3084 
Q 2600 3084 3056 2656 
Q 3513 2228 3513 1497 
Q 3513 744 3044 326 
Q 2575 -91 1722 -91 
Q 1428 -91 1123 -41 
Q 819 9 494 109 
L 494 744 
Q 775 591 1075 516 
Q 1375 441 1709 441 
Q 2250 441 2565 725 
Q 2881 1009 2881 1497 
Q 2881 1984 2565 2268 
Q 2250 2553 1709 2553 
Q 1456 2553 1204 2497 
Q 953 2441 691 2322 
L 691 4666 
z
" transform="scale(0.015625)"/>
       </defs>
       <use xlink:href="#DejaVuSans-35"/>
      </g>
     </g>
    </g>
    <g id="ytick_7">
     <g id="line2d_17">
      <g>
       <use xlink:href="#m7611cf6c68" x="33.120469" y="106.677458" style="fill: #1f2a44; stroke: #1f2a44; stroke-width: 0.8"/>
      </g>
     </g>
     <g id="text_13">
      <!-- 6 -->
      <g style="fill: #1f2a44" transform="translate(20.394219 110.096755) scale(0.09 -0.09)">
       <use xlink:href="#DejaVuSans-36"/>
      </g>
     </g>
    </g>
    <g id="ytick_8">
     <g id="line2d_18">
      <g>
       <use xlink:href="#m7611cf6c68" x="33.120469" y="73.17068" style="fill: #1f2a44; stroke: #1f2a44; stroke-width: 0.8"/>
      </g>
     </g>
     <g id="text_14">
      <!-- 7 -->
      <g style="fill: #1f2a44" transform="translate(20.394219 76.589977) scale(0.09 -0.09)">
       <defs>
        <path id="DejaVuSans-37" d="M 525 4666 
L 3525 4666 
L 3525 4397 
L 1831 0 
L 1172 0 
L 2766 4134 
L 525 4134 
L 525 4666 
z
" transform="scale(0.015625)"/>
       </defs>
       <use xlink:href="#DejaVuSans-37"/>
      </g>
     </g>
    </g>
    <g id="ytick_9">
     <g id="line2d_19">
      <g>
       <use xlink:href="#m7611cf6c68" x="33.120469" y="39.663902" style="fill: #1f2a44; stroke: #1f2a44; stroke-width: 0.8"/>
      </g>
     </g>
     <g id="text_15">
      <!-- 8 -->
      <g style="fill: #1f2a44" transform="translate(20.394219 43.083199) scale(0.09 -0.09)">
       <use xlink:href="#DejaVuSans-38"/>
      </g>
     </g>
    </g>
    <g id="text_16">
     <!-- Density -->
     <g style="fill: #1f2a44" transform="translate(14.418516 185.076289) rotate(-90) scale(0.095 -0.095)">
      <defs>
       <path id="DejaVuSans-44" d="M 1259 4147 
L 1259 519 
L 2022 519 
Q 2988 519 3436 956 
Q 3884 1394 3884 2338 
Q 3884 3275 3436 3711 
Q 2988 4147 2022 4147 
L 1259 4147 
z
M 628 4666 
L 1925 4666 
Q 3281 4666 3915 4102 
Q 4550 3538 4550 2338 
Q 4550 1131 3912 565 
Q 3275 0 1925 0 
L 628 0 
L 628 4666 
z
" transform="scale(0.015625)"/>
      </defs>
      <use xlink:href="#DejaVuSans-44"/>
      <use xlink:href="#DejaVuSans-65" transform="translate(77.001953 0)"/>
      <use xlink:href="#DejaVuSans-6e" transform="translate(138.525391 0)"/>
      <use xlink:href="#DejaVuSans-73" transform="translate(201.904297 0)"/>
      <use xlink:href="#DejaVuSans-69" transform="translate(254.003906 0)"/>
      <use xlink:href="#DejaVuSans-74" transform="translate(281.787109 0)"/>
      <use xlink:href="#DejaVuSans-79" transform="translate(320.996094 0)"/>
     </g>
    </g>
   </g>
   <g id="patch_3">
    <path d="M 58.442287 307.718125 
L 77.199189 307.718125 
L 77.199189 301.855198 
L 58.442287 301.855198 
z
" clip-path="url(#p32811930c0)" style="fill: #4c78a8; opacity: 0.55; stroke: #ffffff; stroke-width: 0.5; stroke-linejoin: miter"/>
   </g>
   <g id="patch_4">
    <path d="M 77.199189 307.718125 
L 95.956092 307.718125 
L 95.956092 290.129344 
L 77.199189 290.129344 
z
" clip-path="url(#p32811930c0)" style="fill: #4c78a8; opacity: 0.55; stroke: #ffffff; stroke-width: 0.5; stroke-linejoin: miter"/>
   </g>
   <g id="patch_5">
    <path d="M 95.956092 307.718125 
L 114.712994 307.718125 
L 114.712994 272.540563 
L 95.956092 272.540563 
z
" clip-path="url(#p32811930c0)" style="fill: #4c78a8; opacity: 0.55; stroke: #ffffff; stroke-width: 0.5; stroke-linejoin: miter"/>
   </g>
   <g id="patch_6">
    <path d="M 114.712994 307.718125 
L 133.469896 307.718125 
L 133.469896 266.677635 
L 114.712994 266.677635 
z
" clip-path="url(#p32811930c0)" style="fill: #4c78a8; opacity: 0.55; stroke: #ffffff; stroke-width: 0.5; stroke-linejoin: miter"/>
   </g>
   <g id="patch_7">
    <path d="M 133.469896 307.718125 
L 152.226799 307.718125 
L 152.226799 266.677635 
L 133.469896 266.677635 
z
" clip-path="url(#p32811930c0)" style="fill: #4c78a8; opacity: 0.55; stroke: #ffffff; stroke-width: 0.5; stroke-linejoin: miter"/>
   </g>
   <g id="patch_8">
    <path d="M 152.226799 307.718125 
L 170.983701 307.718125 
L 170.983701 307.718125 
L 152.226799 307.718125 
z
" clip-path="url(#p32811930c0)" style="fill: #4c78a8; opacity: 0.55; stroke: #ffffff; stroke-width: 0.5; stroke-linejoin: miter"/>
   </g>
   <g id="patch_9">
    <path d="M 170.983701 307.718125 
L 189.740603 307.718125 
L 189.740603 290.129344 
L 170.983701 290.129344 
z
" clip-path="url(#p32811930c0)" style="fill: #4c78a8; opacity: 0.55; stroke: #ffffff; stroke-width: 0.5; stroke-linejoin: miter"/>
   </g>
   <g id="patch_10">
    <path d="M 189.740603 307.718125 
L 208.497506 307.718125 
L 208.497506 301.855198 
L 189.740603 301.855198 
z
" clip-path="url(#p32811930c0)" style="fill: #4c78a8; opacity: 0.55; stroke: #ffffff; stroke-width: 0.5; stroke-linejoin: miter"/>
   </g>
   <g id="patch_11">
    <path d="M 208.497506 307.718125 
L 227.254408 307.718125 
L 227.254408 301.855198 
L 208.497506 301.855198 
z
" clip-path="url(#p32811930c0)" style="fill: #4c78a8; opacity: 0.55; stroke: #ffffff; stroke-width: 0.5; stroke-linejoin: miter"/>
   </g>
   <g id="patch_12">
    <path d="M 227.254408 307.718125 
L 246.011311 307.718125 
L 246.011311 301.855198 
L 227.254408 301.855198 
z
" clip-path="url(#p32811930c0)" style="fill: #4c78a8; opacity: 0.55; stroke: #ffffff; stroke-width: 0.5; stroke-linejoin: miter"/>
   </g>
   <g id="patch_13">
    <path d="M 246.011311 307.718125 
L 264.768213 307.718125 
L 264.768213 307.718125 
L 246.011311 307.718125 
z
" clip-path="url(#p32811930c0)" style="fill: #4c78a8; opacity: 0.55; stroke: #ffffff; stroke-width: 0.5; stroke-linejoin: miter"/>
   </g>
   <g id="patch_14">
    <path d="M 264.768213 307.718125 
L 283.525115 307.718125 
L 283.525115 301.855198 
L 264.768213 301.855198 
z
" clip-path="url(#p32811930c0)" style="fill: #4c78a8; opacity: 0.55; stroke: #ffffff; stroke-width: 0.5; stroke-linejoin: miter"/>
   </g>
   <g id="patch_15">
    <path d="M 283.525115 307.718125 
L 302.282018 307.718125 
L 302.282018 278.40349 
L 283.525115 278.40349 
z
" clip-path="url(#p32811930c0)" style="fill: #4c78a8; opacity: 0.55; stroke: #ffffff; stroke-width: 0.5; stroke-linejoin: miter"/>
   </g>
   <g id="patch_16">
    <path d="M 302.282018 307.718125 
L 321.03892 307.718125 
L 321.03892 301.855198 
L 302.282018 301.855198 
z
" clip-path="url(#p32811930c0)" style="fill: #4c78a8; opacity: 0.55; stroke: #ffffff; stroke-width: 0.5; stroke-linejoin: miter"/>
   </g>
   <g id="patch_17">
    <path d="M 321.03892 307.718125 
L 339.795822 307.718125 
L 339.795822 284.266417 
L 321.03892 284.266417 
z
" clip-path="url(#p32811930c0)" style="fill: #4c78a8; opacity: 0.55; stroke: #ffffff; stroke-width: 0.5; stroke-linejoin: miter"/>
   </g>
   <g id="patch_18">
    <path d="M 339.795822 307.718125 
L 358.552725 307.718125 
L 358.552725 295.992271 
L 339.795822 295.992271 
z
" clip-path="url(#p32811930c0)" style="fill: #4c78a8; opacity: 0.55; stroke: #ffffff; stroke-width: 0.5; stroke-linejoin: miter"/>
   </g>
   <g id="patch_19">
    <path d="M 358.552725 307.718125 
L 377.309627 307.718125 
L 377.309627 278.40349 
L 358.552725 278.40349 
z
" clip-path="url(#p32811930c0)" style="fill: #4c78a8; opacity: 0.55; stroke: #ffffff; stroke-width: 0.5; stroke-linejoin: miter"/>
   </g>
   <g id="patch_20">
    <path d="M 377.309627 307.718125 
L 396.066529 307.718125 
L 396.066529 272.540563 
L 377.309627 272.540563 
z
" clip-path="url(#p32811930c0)" style="fill: #4c78a8; opacity: 0.55; stroke: #ffffff; stroke-width: 0.5; stroke-linejoin: miter"/>
   </g>
   <g id="patch_21">
    <path d="M 396.066529 307.718125 
L 414.823432 307.718125 
L 414.823432 231.500073 
L 396.066529 231.500073 
z
" clip-path="url(#p32811930c0)" style="fill: #4c78a8; opacity: 0.55; stroke: #ffffff; stroke-width: 0.5; stroke-linejoin: miter"/>
   </g>
   <g id="patch_22">
    <path d="M 414.823432 307.718125 
L 433.580334 307.718125 
L 433.580334 243.225927 
L 414.823432 243.225927 
z
" clip-path="url(#p32811930c0)" style="fill: #4c78a8; opacity: 0.55; stroke: #ffffff; stroke-width: 0.5; stroke-linejoin: miter"/>
   </g>
   <g id="patch_23">
    <path d="M 433.580334 307.718125 
L 452.337236 307.718125 
L 452.337236 196.322511 
L 433.580334 196.322511 
z
" clip-path="url(#p32811930c0)" style="fill: #4c78a8; opacity: 0.55; stroke: #ffffff; stroke-width: 0.5; stroke-linejoin: miter"/>
   </g>
   <g id="patch_24">
    <path d="M 452.337236 307.718125 
L 471.094139 307.718125 
L 471.094139 208.048365 
L 452.337236 208.048365 
z
" clip-path="url(#p32811930c0)" style="fill: #4c78a8; opacity: 0.55; stroke: #ffffff; stroke-width: 0.5; stroke-linejoin: miter"/>
   </g>
   <g id="patch_25">
    <path d="M 471.094139 307.718125 
L 489.851041 307.718125 
L 489.851041 167.007875 
L 471.094139 167.007875 
z
" clip-path="url(#p32811930c0)" style="fill: #4c78a8; opacity: 0.55; stroke: #ffffff; stroke-width: 0.5; stroke-linejoin: miter"/>
   </g>
   <g id="patch_26">
    <path d="M 489.851041 307.718125 
L 508.607943 307.718125 
L 508.607943 208.048365 
L 489.851041 208.048365 
z
" clip-path="url(#p32811930c0)" style="fill: #4c78a8; opacity: 0.55; stroke: #ffffff; stroke-width: 0.5; stroke-linejoin: miter"/>
   </g>
   <g id="patch_27">
    <path d="M 508.607943 307.718125 
L 527.364846 307.718125 
L 527.364846 178.733729 
L 508.607943 178.733729 
z
" clip-path="url(#p32811930c0)" style="fill: #4c78a8; opacity: 0.55; stroke: #ffffff; stroke-width: 0.5; stroke-linejoin: miter"/>
   </g>
   <g id="patch_28">
    <path d="M 527.364846 307.718125 
L 546.121748 307.718125 
L 546.121748 266.677635 
L 527.364846 266.677635 
z
" clip-path="url(#p32811930c0)" style="fill: #4c78a8; opacity: 0.55; stroke: #ffffff; stroke-width: 0.5; stroke-linejoin: miter"/>
   </g>
   <g id="patch_29">
    <path d="M 546.121748 307.718125 
L 564.878651 307.718125 
L 564.878651 301.855198 
L 546.121748 301.855198 
z
" clip-path="url(#p32811930c0)" style="fill: #4c78a8; opacity: 0.55; stroke: #ffffff; stroke-width: 0.5; stroke-linejoin: miter"/>
   </g>
   <g id="patch_30">
    <path d="M 58.442287 307.718125 
L 77.199189 307.718125 
L 77.199189 39.718125 
L 58.442287 39.718125 
z
" clip-path="url(#p32811930c0)" style="fill: #c58b39; opacity: 0.55; stroke: #ffffff; stroke-width: 0.5; stroke-linejoin: miter"/>
   </g>
   <g id="patch_31">
    <path d="M 77.199189 307.718125 
L 95.956092 307.718125 
L 95.956092 62.472842 
L 77.199189 62.472842 
z
" clip-path="url(#p32811930c0)" style="fill: #c58b39; opacity: 0.55; stroke: #ffffff; stroke-width: 0.5; stroke-linejoin: miter"/>
   </g>
   <g id="patch_32">
    <path d="M 95.956092 307.718125 
L 114.712994 307.718125 
L 114.712994 153.49171 
L 95.956092 153.49171 
z
" clip-path="url(#p32811930c0)" style="fill: #c58b39; opacity: 0.55; stroke: #ffffff; stroke-width: 0.5; stroke-linejoin: miter"/>
   </g>
   <g id="patch_33">
    <path d="M 114.712994 307.718125 
L 133.469896 307.718125 
L 133.469896 211.642653 
L 114.712994 211.642653 
z
" clip-path="url(#p32811930c0)" style="fill: #c58b39; opacity: 0.55; stroke: #ffffff; stroke-width: 0.5; stroke-linejoin: miter"/>
   </g>
   <g id="patch_34">
    <path d="M 133.469896 307.718125 
L 152.226799 307.718125 
L 152.226799 287.49171 
L 133.469896 287.49171 
z
" clip-path="url(#p32811930c0)" style="fill: #c58b39; opacity: 0.55; stroke: #ffffff; stroke-width: 0.5; stroke-linejoin: miter"/>
   </g>
   <g id="patch_35">
    <path d="M 152.226799 307.718125 
L 170.983701 307.718125 
L 170.983701 274.8502 
L 152.226799 274.8502 
z
" clip-path="url(#p32811930c0)" style="fill: #c58b39; opacity: 0.55; stroke: #ffffff; stroke-width: 0.5; stroke-linejoin: miter"/>
   </g>
   <g id="patch_36">
    <path d="M 170.983701 307.718125 
L 189.740603 307.718125 
L 189.740603 284.963408 
L 170.983701 284.963408 
z
" clip-path="url(#p32811930c0)" style="fill: #c58b39; opacity: 0.55; stroke: #ffffff; stroke-width: 0.5; stroke-linejoin: miter"/>
   </g>
   <g id="patch_37">
    <path d="M 189.740603 307.718125 
L 208.497506 307.718125 
L 208.497506 292.548314 
L 189.740603 292.548314 
z
" clip-path="url(#p32811930c0)" style="fill: #c58b39; opacity: 0.55; stroke: #ffffff; stroke-width: 0.5; stroke-linejoin: miter"/>
   </g>
   <g id="patch_38">
    <path d="M 208.497506 307.718125 
L 227.254408 307.718125 
L 227.254408 297.604917 
L 208.497506 297.604917 
z
" clip-path="url(#p32811930c0)" style="fill: #c58b39; opacity: 0.55; stroke: #ffffff; stroke-width: 0.5; stroke-linejoin: miter"/>
   </g>
   <g id="patch_39">
    <path d="M 227.254408 307.718125 
L 246.011311 307.718125 
L 246.011311 305.189823 
L 227.254408 305.189823 
z
" clip-path="url(#p32811930c0)" style="fill: #c58b39; opacity: 0.55; stroke: #ffffff; stroke-width: 0.5; stroke-linejoin: miter"/>
   </g>
   <g id="patch_40">
    <path d="M 246.011311 307.718125 
L 264.768213 307.718125 
L 264.768213 307.718125 
L 246.011311 307.718125 
z
" clip-path="url(#p32811930c0)" style="fill: #c58b39; opacity: 0.55; stroke: #ffffff; stroke-width: 0.5; stroke-linejoin: miter"/>
   </g>
   <g id="patch_41">
    <path d="M 264.768213 307.718125 
L 283.525115 307.718125 
L 283.525115 297.604917 
L 264.768213 297.604917 
z
" clip-path="url(#p32811930c0)" style="fill: #c58b39; opacity: 0.55; stroke: #ffffff; stroke-width: 0.5; stroke-linejoin: miter"/>
   </g>
   <g id="patch_42">
    <path d="M 283.525115 307.718125 
L 302.282018 307.718125 
L 302.282018 300.133219 
L 283.525115 300.133219 
z
" clip-path="url(#p32811930c0)" style="fill: #c58b39; opacity: 0.55; stroke: #ffffff; stroke-width: 0.5; stroke-linejoin: miter"/>
   </g>
   <g id="patch_43">
    <path d="M 302.282018 307.718125 
L 321.03892 307.718125 
L 321.03892 295.076616 
L 302.282018 295.076616 
z
" clip-path="url(#p32811930c0)" style="fill: #c58b39; opacity: 0.55; stroke: #ffffff; stroke-width: 0.5; stroke-linejoin: miter"/>
   </g>
   <g id="patch_44">
    <path d="M 321.03892 307.718125 
L 339.795822 307.718125 
L 339.795822 297.604917 
L 321.03892 297.604917 
z
" clip-path="url(#p32811930c0)" style="fill: #c58b39; opacity: 0.55; stroke: #ffffff; stroke-width: 0.5; stroke-linejoin: miter"/>
   </g>
   <g id="patch_45">
    <path d="M 339.795822 307.718125 
L 358.552725 307.718125 
L 358.552725 295.076616 
L 339.795822 295.076616 
z
" clip-path="url(#p32811930c0)" style="fill: #c58b39; opacity: 0.55; stroke: #ffffff; stroke-width: 0.5; stroke-linejoin: miter"/>
   </g>
   <g id="patch_46">
    <path d="M 358.552725 307.718125 
L 377.309627 307.718125 
L 377.309627 305.189823 
L 358.552725 305.189823 
z
" clip-path="url(#p32811930c0)" style="fill: #c58b39; opacity: 0.55; stroke: #ffffff; stroke-width: 0.5; stroke-linejoin: miter"/>
   </g>
   <g id="patch_47">
    <path d="M 377.309627 307.718125 
L 396.066529 307.718125 
L 396.066529 297.604917 
L 377.309627 297.604917 
z
" clip-path="url(#p32811930c0)" style="fill: #c58b39; opacity: 0.55; stroke: #ffffff; stroke-width: 0.5; stroke-linejoin: miter"/>
   </g>
   <g id="patch_48">
    <path d="M 396.066529 307.718125 
L 414.823432 307.718125 
L 414.823432 302.661521 
L 396.066529 302.661521 
z
" clip-path="url(#p32811930c0)" style="fill: #c58b39; opacity: 0.55; stroke: #ffffff; stroke-width: 0.5; stroke-linejoin: miter"/>
   </g>
   <g id="patch_49">
    <path d="M 414.823432 307.718125 
L 433.580334 307.718125 
L 433.580334 290.020012 
L 414.823432 290.020012 
z
" clip-path="url(#p32811930c0)" style="fill: #c58b39; opacity: 0.55; stroke: #ffffff; stroke-width: 0.5; stroke-linejoin: miter"/>
   </g>
   <g id="patch_50">
    <path d="M 433.580334 307.718125 
L 452.337236 307.718125 
L 452.337236 279.906804 
L 433.580334 279.906804 
z
" clip-path="url(#p32811930c0)" style="fill: #c58b39; opacity: 0.55; stroke: #ffffff; stroke-width: 0.5; stroke-linejoin: miter"/>
   </g>
   <g id="patch_51">
    <path d="M 452.337236 307.718125 
L 471.094139 307.718125 
L 471.094139 269.793597 
L 452.337236 269.793597 
z
" clip-path="url(#p32811930c0)" style="fill: #c58b39; opacity: 0.55; stroke: #ffffff; stroke-width: 0.5; stroke-linejoin: miter"/>
   </g>
   <g id="patch_52">
    <path d="M 471.094139 307.718125 
L 489.851041 307.718125 
L 489.851041 279.906804 
L 471.094139 279.906804 
z
" clip-path="url(#p32811930c0)" style="fill: #c58b39; opacity: 0.55; stroke: #ffffff; stroke-width: 0.5; stroke-linejoin: miter"/>
   </g>
   <g id="patch_53">
    <path d="M 489.851041 307.718125 
L 508.607943 307.718125 
L 508.607943 279.906804 
L 489.851041 279.906804 
z
" clip-path="url(#p32811930c0)" style="fill: #c58b39; opacity: 0.55; stroke: #ffffff; stroke-width: 0.5; stroke-linejoin: miter"/>
   </g>
   <g id="patch_54">
    <path d="M 508.607943 307.718125 
L 527.364846 307.718125 
L 527.364846 300.133219 
L 508.607943 300.133219 
z
" clip-path="url(#p32811930c0)" style="fill: #c58b39; opacity: 0.55; stroke: #ffffff; stroke-width: 0.5; stroke-linejoin: miter"/>
   </g>
   <g id="patch_55">
    <path d="M 527.364846 307.718125 
L 546.121748 307.718125 
L 546.121748 307.718125 
L 527.364846 307.718125 
z
" clip-path="url(#p32811930c0)" style="fill: #c58b39; opacity: 0.55; stroke: #ffffff; stroke-width: 0.5; stroke-linejoin: miter"/>
   </g>
   <g id="patch_56">
    <path d="M 546.121748 307.718125 
L 564.878651 307.718125 
L 564.878651 307.718125 
L 546.121748 307.718125 
z
" clip-path="url(#p32811930c0)" style="fill: #c58b39; opacity: 0.55; stroke: #ffffff; stroke-width: 0.5; stroke-linejoin: miter"/>
   </g>
   <g id="patch_57">
    <path d="M 33.120469 307.718125 
L 33.120469 26.318125 
" style="fill: none; stroke: #d9dee7; stroke-width: 0.8; stroke-linejoin: miter; stroke-linecap: square"/>
   </g>
   <g id="patch_58">
    <path d="M 33.120469 307.718125 
L 590.200469 307.718125 
" style="fill: none; stroke: #d9dee7; stroke-width: 0.8; stroke-linejoin: miter; stroke-linecap: square"/>
   </g>
   <g id="text_17">
    <!-- Lalonde propensity score overlap -->
    <g transform="translate(33.120469 16.318125) scale(0.12 -0.12)">
     <defs>
      <path id="DejaVuSans-4c" d="M 628 4666 
L 1259 4666 
L 1259 531 
L 3531 531 
L 3531 0 
L 628 0 
L 628 4666 
z
" transform="scale(0.015625)"/>
      <path id="DejaVuSans-61" d="M 2194 1759 
Q 1497 1759 1228 1600 
Q 959 1441 959 1056 
Q 959 750 1161 570 
Q 1363 391 1709 391 
Q 2188 391 2477 730 
Q 2766 1069 2766 1631 
L 2766 1759 
L 2194 1759 
z
M 3341 1997 
L 3341 0 
L 2766 0 
L 2766 531 
Q 2569 213 2275 61 
Q 1981 -91 1556 -91 
Q 1019 -91 701 211 
Q 384 513 384 1019 
Q 384 1609 779 1909 
Q 1175 2209 1959 2209 
L 2766 2209 
L 2766 2266 
Q 2766 2663 2505 2880 
Q 2244 3097 1772 3097 
Q 1472 3097 1187 3025 
Q 903 2953 641 2809 
L 641 3341 
Q 956 3463 1253 3523 
Q 1550 3584 1831 3584 
Q 2591 3584 2966 3190 
Q 3341 2797 3341 1997 
z
" transform="scale(0.015625)"/>
      <path id="DejaVuSans-6c" d="M 603 4863 
L 1178 4863 
L 1178 0 
L 603 0 
L 603 4863 
z
" transform="scale(0.015625)"/>
      <path id="DejaVuSans-64" d="M 2906 2969 
L 2906 4863 
L 3481 4863 
L 3481 0 
L 2906 0 
L 2906 525 
Q 2725 213 2448 61 
Q 2172 -91 1784 -91 
Q 1150 -91 751 415 
Q 353 922 353 1747 
Q 353 2572 751 3078 
Q 1150 3584 1784 3584 
Q 2172 3584 2448 3432 
Q 2725 3281 2906 2969 
z
M 947 1747 
Q 947 1113 1208 752 
Q 1469 391 1925 391 
Q 2381 391 2643 752 
Q 2906 1113 2906 1747 
Q 2906 2381 2643 2742 
Q 2381 3103 1925 3103 
Q 1469 3103 1208 2742 
Q 947 2381 947 1747 
z
" transform="scale(0.015625)"/>
      <path id="DejaVuSans-76" d="M 191 3500 
L 800 3500 
L 1894 563 
L 2988 3500 
L 3597 3500 
L 2284 0 
L 1503 0 
L 191 3500 
z
" transform="scale(0.015625)"/>
     </defs>
     <use xlink:href="#DejaVuSans-4c"/>
     <use xlink:href="#DejaVuSans-61" transform="translate(55.712891 0)"/>
     <use xlink:href="#DejaVuSans-6c" transform="translate(116.992188 0)"/>
     <use xlink:href="#DejaVuSans-6f" transform="translate(144.775391 0)"/>
     <use xlink:href="#DejaVuSans-6e" transform="translate(205.957031 0)"/>
     <use xlink:href="#DejaVuSans-64" transform="translate(269.335938 0)"/>
     <use xlink:href="#DejaVuSans-65" transform="translate(332.8125 0)"/>
     <use xlink:href="#DejaVuSans-20" transform="translate(394.335938 0)"/>
     <use xlink:href="#DejaVuSans-70" transform="translate(426.123047 0)"/>
     <use xlink:href="#DejaVuSans-72" transform="translate(489.599609 0)"/>
     <use xlink:href="#DejaVuSans-6f" transform="translate(528.462891 0)"/>
     <use xlink:href="#DejaVuSans-70" transform="translate(589.644531 0)"/>
     <use xlink:href="#DejaVuSans-65" transform="translate(653.121094 0)"/>
     <use xlink:href="#DejaVuSans-6e" transform="translate(714.644531 0)"/>
     <use xlink:href="#DejaVuSans-73" transform="translate(778.023438 0)"/>
     <use xlink:href="#DejaVuSans-69" transform="translate(830.123047 0)"/>
     <use xlink:href="#DejaVuSans-74" transform="translate(857.90625 0)"/>
     <use xlink:href="#DejaVuSans-79" transform="translate(897.115234 0)"/>
     <use xlink:href="#DejaVuSans-20" transform="translate(956.294922 0)"/>
     <use xlink:href="#DejaVuSans-73" transform="translate(988.082031 0)"/>
     <use xlink:href="#DejaVuSans-63" transform="translate(1040.181641 0)"/>
     <use xlink:href="#DejaVuSans-6f" transform="translate(1095.162109 0)"/>
     <use xlink:href="#DejaVuSans-72" transform="translate(1156.34375 0)"/>
     <use xlink:href="#DejaVuSans-65" transform="translate(1195.207031 0)"/>
     <use xlink:href="#DejaVuSans-20" transform="translate(1256.730469 0)"/>
     <use xlink:href="#DejaVuSans-6f" transform="translate(1288.517578 0)"/>
     <use xlink:href="#DejaVuSans-76" transform="translate(1349.699219 0)"/>
     <use xlink:href="#DejaVuSans-65" transform="translate(1408.878906 0)"/>
     <use xlink:href="#DejaVuSans-72" transform="translate(1470.402344 0)"/>
     <use xlink:href="#DejaVuSans-6c" transform="translate(1511.515625 0)"/>
     <use xlink:href="#DejaVuSans-61" transform="translate(1539.298828 0)"/>
     <use xlink:href="#DejaVuSans-70" transform="translate(1600.578125 0)"/>
    </g>
   </g>
   <g id="legend_1">
    <g id="patch_59">
     <path d="M 515.978594 42.916562 
L 535.978594 42.916562 
L 535.978594 35.916562 
L 515.978594 35.916562 
z
" style="fill: #4c78a8; opacity: 0.55; stroke: #ffffff; stroke-width: 0.5; stroke-linejoin: miter"/>
    </g>
    <g id="text_18">
     <!-- Treated -->
     <g transform="translate(543.978594 42.916562) scale(0.1 -0.1)">
      <defs>
       <path id="DejaVuSans-54" d="M -19 4666 
L 3928 4666 
L 3928 4134 
L 2272 4134 
L 2272 0 
L 1638 0 
L 1638 4134 
L -19 4134 
L -19 4666 
z
" transform="scale(0.015625)"/>
      </defs>
      <use xlink:href="#DejaVuSans-54"/>
      <use xlink:href="#DejaVuSans-72" transform="translate(46.333984 0)"/>
      <use xlink:href="#DejaVuSans-65" transform="translate(85.197266 0)"/>
      <use xlink:href="#DejaVuSans-61" transform="translate(146.720703 0)"/>
      <use xlink:href="#DejaVuSans-74" transform="translate(208 0)"/>
      <use xlink:href="#DejaVuSans-65" transform="translate(247.208984 0)"/>
      <use xlink:href="#DejaVuSans-64" transform="translate(308.732422 0)"/>
     </g>
    </g>
    <g id="patch_60">
     <path d="M 515.978594 57.594687 
L 535.978594 57.594687 
L 535.978594 50.594687 
L 515.978594 50.594687 
z
" style="fill: #c58b39; opacity: 0.55; stroke: #ffffff; stroke-width: 0.5; stroke-linejoin: miter"/>
    </g>
    <g id="text_19">
     <!-- Control -->
     <g transform="translate(543.978594 57.594687) scale(0.1 -0.1)">
      <defs>
       <path id="DejaVuSans-43" d="M 4122 4306 
L 4122 3641 
Q 3803 3938 3442 4084 
Q 3081 4231 2675 4231 
Q 1875 4231 1450 3742 
Q 1025 3253 1025 2328 
Q 1025 1406 1450 917 
Q 1875 428 2675 428 
Q 3081 428 3442 575 
Q 3803 722 4122 1019 
L 4122 359 
Q 3791 134 3420 21 
Q 3050 -91 2638 -91 
Q 1578 -91 968 557 
Q 359 1206 359 2328 
Q 359 3453 968 4101 
Q 1578 4750 2638 4750 
Q 3056 4750 3426 4639 
Q 3797 4528 4122 4306 
z
" transform="scale(0.015625)"/>
      </defs>
      <use xlink:href="#DejaVuSans-43"/>
      <use xlink:href="#DejaVuSans-6f" transform="translate(69.824219 0)"/>
      <use xlink:href="#DejaVuSans-6e" transform="translate(131.005859 0)"/>
      <use xlink:href="#DejaVuSans-74" transform="translate(194.384766 0)"/>
      <use xlink:href="#DejaVuSans-72" transform="translate(233.59375 0)"/>
      <use xlink:href="#DejaVuSans-6f" transform="translate(272.457031 0)"/>
      <use xlink:href="#DejaVuSans-6c" transform="translate(333.638672 0)"/>
     </g>
    </g>
   </g>
  </g>
 </g>
 <defs>
  <clipPath id="p32811930c0">
   <rect x="33.120469" y="26.318125" width="557.08" height="281.4"/>
  </clipPath>
 </defs>
</svg>
